<?xml version="1.0" encoding="UTF-8" standalone="no"?><!DOCTYPE svg PUBLIC "-//W3C//DTD SVG 1.1//EN" "http://www.w3.org/Graphics/SVG/1.1/DTD/svg11.dtd"><svg width="100%" height="100%" viewBox="0 0 848 1040" version="1.1" xmlns="http://www.w3.org/2000/svg" xmlns:xlink="http://www.w3.org/1999/xlink" xml:space="preserve" xmlns:serif="http://www.serif.com/" style="fill-rule:evenodd;clip-rule:evenodd;stroke-linejoin:round;stroke-miterlimit:1.41421;"><path d="M418.035,1039.19c-180.45,0 -326.737,-13.625 -326.737,-30.435c0,-6.256 20.278,-12.075 55.047,-16.912c3.721,10.553 12.037,15.622 21.79,15.622c4.916,0 10.194,-1.288 15.435,-3.81c9.103,-4.378 15.993,-10.7 21.784,-18.006c57.156,-4.569 131.453,-7.328 212.681,-7.328c51.172,0 99.585,1.094 142.703,3.047c3.3,3.434 6.532,6.909 9.697,10.428c11.069,12.297 29.969,29.894 47.766,29.894l0.684,0c7.519,0.003 14.838,-3.138 21.288,-11.144c5.225,-6.491 7.472,-14.694 7.922,-23.403c59.703,5.515 96.684,13.162 96.684,21.612c0,16.81 -146.288,30.435 -326.744,30.435Z" style="fill:#79a5d8;fill-rule:nonzero;"/><path d="M292.073,217.406c6.303,-2.825 11.318,-8.181 14.281,-14.422c2.856,-6.015 4.272,-12.122 8.572,-17.347c4.128,-5.015 10.312,-7.987 16.35,-10.015c7.6,-2.556 15.669,-4.038 22.606,-8.056c6.366,-3.685 11.503,-9.45 14.434,-16.194c2.125,-4.891 3.091,-10.194 3.916,-15.463c0.691,-4.4 1.291,-8.815 1.894,-13.231c-11.931,12.459 -26.163,23.597 -42.963,27.513c-11.368,2.65 -23.603,1.921 -34.272,6.662c-10.953,4.872 -18.709,14.825 -25.328,24.819c-2.743,4.144 -5.375,8.365 -7.887,12.653c-2.61,4.453 -5.175,9.641 -3.631,14.569c3.45,11.009 23.434,12.368 32.028,8.512Z" style="fill:#fedc8e;fill-rule:nonzero;"/><path d="M293.254,219.431c8.769,-4.809 12.884,-10.797 17.062,-19.778c5.007,-10.753 10.047,-17.506 21.582,-21.772c6.022,-2.228 12.44,-3.272 18.322,-5.922c20.568,-9.262 23.368,-28.265 26.165,-48.656c0.294,-2.147 -2.106,-4.119 -3.915,-2.281c-8.657,8.784 -18.063,17.131 -29.313,22.45c-10.609,5.015 -21.084,5.319 -32.5,7.344c-18.372,3.256 -29.444,12.618 -39.847,27.806c-6.29,9.178 -19.44,24.69 -10.081,35.85c7.187,8.575 22.331,8.594 31.966,5.194c2.828,-0.994 1.609,-5.525 -1.247,-4.519c-5.807,2.047 -12.435,2.512 -18.45,0.934c-15.782,-4.14 -6.672,-22.059 -0.763,-31.14c11.294,-17.36 22.975,-27.244 44.025,-30.166c24.544,-3.403 42.053,-12.709 59.522,-30.438c-1.306,-0.762 -2.609,-1.521 -3.916,-2.281c-1.656,12.06 -2.337,25.363 -10.121,35.278c-9.307,11.85 -22.991,12.05 -35.613,17.741c-19.159,8.644 -17.637,30.65 -35.244,40.309c-2.647,1.45 -0.281,5.5 2.366,4.047Z" style="fill:#4d2d54;fill-rule:nonzero;"/><path d="M277.029,206.547c12.791,-8.491 7.687,-25.566 17.441,-36.216c3.909,-4.269 9.6,-6.409 15.19,-7.909c9.31,-2.5 18.931,-3.622 28.319,-5.791c9.391,-2.169 18.769,-5.515 26.097,-11.775c7.325,-6.262 12.306,-15.881 11.04,-25.434c-4.465,6.862 -11.371,12.103 -19.184,14.556c-10.994,3.453 -22.841,1.403 -34.366,1.331c-8.953,-0.056 -17.871,1.1 -26.7,2.613c-3.337,0.572 -6.684,1.197 -9.89,2.287c-3.741,1.275 -7.247,3.163 -10.553,5.325c-6.953,4.547 -13.088,10.338 -18.032,17.013c-7.4,9.994 -12.146,22.669 -9.856,34.894c1.1,5.881 4.36,11.793 10.703,12.45c7.035,0.731 13.65,0.731 19.791,-3.344Z" style="fill:#c6a8d0;fill-rule:nonzero;"/><path d="M278.685,208.203c7.488,-6.141 8.781,-13.025 11.3,-21.978c6.272,-22.3 26.485,-22.534 45.788,-26.734c20.943,-4.56 42.353,-15.753 41.687,-40.069c-0.069,-2.497 -3.022,-2.966 -4.369,-1.185c-12.309,16.279 -32.503,16.132 -52.328,15.988c-9.19,-0.066 -18.306,-0.134 -26.518,1.437c-17.244,3.297 -31.297,13.013 -41.197,27.635c-15.541,22.956 -10.188,62.931 25.162,45.272c2.7,-1.347 0.328,-5.391 -2.365,-4.047c-6.416,3.206 -19.504,5.072 -24.869,-1.531c-3.319,-4.082 -2.91,-13.829 -2.019,-18.704c1.781,-9.793 7.35,-18.518 13.884,-25.812c12.944,-14.444 29.3,-18.838 48,-20.363c5.95,-0.484 11.841,-0.44 17.591,-0.396c18.484,0.137 35.559,0.275 48.706,-17.113c-1.456,-0.394 -2.909,-0.787 -4.365,-1.181c1.097,40.022 -48.61,31.587 -72.241,43.775c-17.694,9.125 -11.119,30.178 -25.162,41.694c-2.332,1.912 1,5.209 3.315,3.312Z" style="fill:#4d2d54;fill-rule:nonzero;"/><path d="M240.807,163.925c3.388,-6.291 8.206,-11.903 13.713,-16.253c17.065,-13.484 40.043,-18.122 61.378,-17.9c11.125,0.115 22.25,2.028 33.325,0.978c11.075,-1.05 22.64,-5.772 28.125,-15.45c-0.15,7.966 -4.675,15.712 -11.538,19.756c-4.619,2.719 -10.006,3.769 -15.29,4.65c-12.147,2.016 -24.363,3.181 -36.638,4.047c-11.819,0.831 -24.562,2.722 -34.619,9.444c-9.693,6.484 -16.137,19.934 -18.268,31.162c-0.807,4.238 -1.088,8.638 -2.794,12.597c-1.71,3.96 -5.331,7.51 -9.644,7.481c-3.894,-0.021 -6.019,-1.828 -8.281,-4.996c-7.306,-10.232 -5.047,-25.15 0.531,-35.516Z" style="fill:#838ec6;fill-rule:nonzero;"/><path d="M242.832,165.109c17.428,-29.25 53.069,-34.159 84.188,-32.456c19.603,1.075 40.081,1.741 52.35,-16.172c-1.457,-0.394 -2.913,-0.787 -4.366,-1.181c-3.891,35.772 -70.047,19.95 -94.691,34.578c-8.087,4.797 -13.628,12.216 -17.415,20.772c-2.457,5.55 -2.566,11.994 -4.866,17.356c0.341,6.016 -3.003,7.125 -10.034,3.325c-7.36,2.331 -10.557,0.578 -9.594,-5.259c-1.844,-6.369 1.869,-15.538 4.428,-20.963c1.278,-2.715 -2.762,-5.097 -4.047,-2.365c-5.437,11.528 -10.153,32.275 2.594,41.419c15.197,10.896 20.053,-11.504 22.375,-21.329c9.4,-39.781 48.787,-35.262 80.997,-39.887c17.819,-2.56 32.79,-7.888 34.94,-27.647c0.272,-2.519 -3.193,-2.897 -4.368,-1.184c-11.569,16.887 -34.06,15.871 -55.453,14.856c-10.594,-0.5 -20.916,-1.003 -29.513,0.665c-21.109,4.1 -40.369,14.304 -51.572,33.107c-1.547,2.597 2.503,4.956 4.047,2.365Z" style="fill:#4d2d54;fill-rule:nonzero;"/><path d="M366.626,247.875c8.072,-0.884 15.412,-4.569 20.659,-9.7c5.056,-4.944 8.488,-10.397 14.969,-14.163c6.219,-3.615 14.191,-4.675 21.722,-4.871c2.812,-0.072 5.644,-0.041 8.472,-0.013c6.715,0.069 13.422,0.141 19.859,-1.156c8.394,-1.688 15.994,-5.731 21.353,-11.356c3.881,-4.079 6.56,-8.888 9.063,-13.707c2.093,-4.025 4.09,-8.087 6.087,-12.153c-17.375,8.497 -37.003,15.056 -57.44,13.938c-13.835,-0.757 -27.66,-5.007 -41.307,-3.553c-14.009,1.493 -25.859,8.796 -36.406,16.471c-4.375,3.182 -8.644,6.469 -12.797,9.857c-4.312,3.515 -8.79,7.756 -8.475,12.934c0.703,11.569 23.241,18.678 34.241,17.472Z" style="fill:#fedc8e;fill-rule:nonzero;"/><path d="M367.251,250.137c11.194,-2.018 17.965,-6.993 25.922,-14.828c14.687,-14.459 28.693,-13.118 47.937,-13.856c27.281,-1.044 38.463,-16.641 49.722,-39.512c1.069,-2.166 -1.062,-4.219 -3.203,-3.207c-14.297,6.75 -29.297,12.338 -45.2,13.5c-13.772,1.007 -27.003,-2.568 -40.628,-3.5c-22.713,-1.559 -40.716,9.753 -57.931,23.357c-7.813,6.175 -18.275,14.368 -11.388,24.978c6.547,10.078 23.059,13.687 34.144,13.15c3.003,-0.144 3.022,-4.835 0,-4.688c-6.341,0.31 -12.46,-0.859 -18.35,-3.178c-2.578,-1.016 -9.519,-3.412 -10.669,-6.359c-2.109,-5.416 1.825,-13.022 4.913,-16.869c11.934,-14.859 38,-26.409 56.34,-25.822c16.753,0.534 32.428,5.225 49.331,3.013c14.707,-1.925 28.482,-7.241 41.8,-13.535c-1.065,-1.069 -2.137,-2.137 -3.206,-3.206c-7.112,14.447 -13.747,29.303 -30.172,34.85c-7.837,2.644 -16.009,2.512 -24.19,2.378c-5.891,-0.094 -11.785,-0.191 -17.557,0.753c-20.756,3.388 -28.331,24.356 -48.862,28.06c-2.966,0.534 -1.709,5.053 1.247,4.521Z" style="fill:#4d2d54;fill-rule:nonzero;"/><path d="M352.573,233.081c17.19,-4.437 16.384,-22.312 30.725,-29.703c5.75,-2.966 12.915,-3.369 19.775,-3.184c11.418,0.303 22.797,2.018 34.212,2.665c11.422,0.644 23.172,0.153 33.431,-3.731c10.263,-3.881 18.822,-11.672 20.191,-21.209c-7.153,5.29 -16.628,8.315 -26.316,8.403c-13.64,0.122 -26.634,-5.285 -39.834,-8.7c-10.262,-2.656 -20.844,-4.131 -31.419,-5.247c-4.003,-0.422 -8.028,-0.791 -12.031,-0.675c-4.669,0.137 -9.253,0.934 -13.687,2.05c-9.322,2.347 -18.075,6.122 -25.722,11.094c-11.45,7.45 -20.644,18.237 -21.632,30.637c-0.475,5.969 1.516,12.588 8.604,15.06c7.859,2.743 15.453,4.668 23.703,2.54Z" style="fill:#c6a8d0;fill-rule:nonzero;"/><path d="M353.198,235.341c9.756,-3.407 14.056,-9.516 19.687,-17.813c13.491,-19.866 35.135,-14.75 55.844,-12.981c22.872,1.953 57.384,1.719 64.441,-26.006c0.478,-1.891 -1.675,-3.8 -3.447,-2.647c-26.763,17.468 -56.966,-0.528 -85.197,-4.513c-22.231,-3.137 -42.319,-1.719 -61.856,10.247c-12.4,7.597 -26.847,21.666 -24.672,37.784c2.172,16.1 22.172,18.11 35.2,15.929c2.965,-0.5 1.706,-5.016 -1.247,-4.522c-14.372,2.409 -16.541,0.959 -23.285,-9.9c-5.721,-9.219 -6.29,-11.138 -0.718,-19.682c5.44,-8.346 14.331,-14.54 23.128,-18.934c19.415,-9.694 39.206,-8.831 60.084,-5.169c27.81,4.878 54.403,20.119 80.931,2.807c-1.146,-0.882 -2.293,-1.763 -3.443,-2.647c-6.994,27.484 -38.741,24.812 -65.866,22.14c-10.372,-1.022 -20.069,-2.043 -27.45,-1.378c-7.528,0.678 -14.253,2.8 -19.753,8.122c-8.847,8.559 -10.569,20.084 -23.628,24.641c-2.831,0.987 -1.616,5.518 1.247,4.522Z" style="fill:#4d2d54;fill-rule:nonzero;"/><path d="M323.604,181.644c5.747,-5.057 12.937,-9.044 20.541,-11.622c23.575,-7.991 51.318,-5.772 75.737,0.637c12.734,3.341 24.938,8.407 37.959,10.616c13.022,2.209 27.691,1.031 36.844,-6.666c-2.522,7.603 -10.006,13.728 -19.078,15.616c-6.103,1.269 -12.597,0.716 -18.925,0.022c-14.537,-1.588 -28.906,-4.019 -43.247,-6.753c-13.809,-2.632 -28.994,-4.519 -42.522,-0.982c-13.043,3.41 -24.415,14.45 -30.184,24.61c-2.175,3.834 -3.797,7.978 -6.928,11.284c-3.131,3.306 -8.341,5.66 -13.281,4.381c-4.463,-1.153 -6.369,-3.503 -8.029,-7.2c-5.359,-11.943 1.644,-25.612 11.113,-33.943Z" style="fill:#838ec6;fill-rule:nonzero;"/><path d="M325.263,183.3c28.316,-22.75 69.688,-17.822 102.119,-8.031c22.169,6.693 47.475,16.147 68.488,1.362c-1.066,-1.069 -2.135,-2.137 -3.207,-3.206c-10.515,23.231 -42.953,14.012 -62.45,10.728c-16.972,-2.856 -34.184,-7.453 -51.525,-5.378c-11.928,1.425 -22.037,6.45 -30.537,14.959c-4.256,4.263 -7.453,8.953 -10.478,14.15c-1.019,1.957 -2.085,3.891 -3.194,5.794c-7.166,-2.419 -14.331,-4.841 -21.5,-7.262c-1.738,-7.663 7.584,-18.494 12.284,-23.116c2.153,-2.119 -1.162,-5.431 -3.315,-3.316c-9.638,9.482 -22.2,32.028 -6.782,42.903c17.797,12.554 27.672,-17.462 36.297,-25.837c25.547,-24.803 63.266,-10.028 94.035,-5.841c19.04,2.591 41.787,5.403 51.215,-15.418c0.857,-1.897 -1.081,-4.704 -3.209,-3.207c-27.997,19.697 -67.856,-5.375 -97.953,-8.928c-25.713,-3.034 -52.866,-0.334 -73.603,16.328c-2.353,1.891 0.981,5.188 3.315,3.316Z" style="fill:#4d2d54;fill-rule:nonzero;"/><path d="M431.304,297.741c8.069,-0.882 15.412,-4.569 20.662,-9.7c5.054,-4.944 8.485,-10.394 14.966,-14.163c6.219,-3.616 14.194,-4.675 21.725,-4.869c2.809,-0.075 5.638,-0.043 8.466,-0.015c6.715,0.072 13.425,0.143 19.862,-1.153c8.394,-1.688 15.994,-5.735 21.353,-11.36c3.882,-4.075 6.56,-8.887 9.066,-13.703c2.094,-4.028 4.087,-8.091 6.084,-12.153c-17.375,8.497 -37.003,15.056 -57.44,13.937c-13.835,-0.756 -27.66,-5.009 -41.307,-3.553c-14.009,1.491 -25.856,8.797 -36.406,16.469c-4.375,3.184 -8.644,6.469 -12.794,9.856c-4.312,3.519 -8.79,7.757 -8.478,12.935c0.703,11.569 23.241,18.681 34.241,17.472Z" style="fill:#fedc8e;fill-rule:nonzero;"/><path d="M431.929,300.003c11.187,-2.019 17.962,-6.991 25.922,-14.828c14.687,-14.459 28.694,-13.116 47.937,-13.853c27.285,-1.047 38.463,-16.641 49.722,-39.516c1.069,-2.165 -1.062,-4.219 -3.203,-3.206c-14.294,6.753 -29.297,12.337 -45.2,13.5c-13.769,1.009 -27.003,-2.566 -40.628,-3.5c-22.716,-1.556 -40.716,9.753 -57.931,23.359c-7.813,6.172 -18.275,14.366 -11.388,24.975c6.547,10.082 23.06,13.691 34.144,13.15c3.003,-0.143 3.022,-4.834 0,-4.687c-6.338,0.309 -12.459,-0.86 -18.35,-3.178c-2.578,-1.016 -9.519,-3.413 -10.666,-6.357c-2.112,-5.418 1.822,-13.025 4.91,-16.868c11.934,-14.863 38.003,-26.41 56.343,-25.825c16.75,0.537 32.425,5.228 49.329,3.012c14.706,-1.925 28.481,-7.24 41.803,-13.534c-1.069,-1.069 -2.141,-2.138 -3.21,-3.206c-7.112,14.446 -13.75,29.306 -30.172,34.85c-7.834,2.643 -16.009,2.512 -24.184,2.381c-5.894,-0.097 -11.787,-0.194 -17.559,0.75c-20.76,3.39 -28.338,24.356 -48.866,28.059c-2.962,0.538 -1.709,5.053 1.247,4.522Z" style="fill:#4d2d54;fill-rule:nonzero;"/><path d="M417.251,282.947c17.19,-4.438 16.381,-22.313 30.725,-29.703c5.75,-2.963 12.915,-3.369 19.775,-3.185c11.422,0.307 22.794,2.022 34.215,2.666c11.416,0.644 23.172,0.153 33.432,-3.728c10.256,-3.885 18.818,-11.672 20.19,-21.213c-7.153,5.294 -16.631,8.319 -26.318,8.407c-13.641,0.118 -26.635,-5.285 -39.835,-8.704c-10.262,-2.653 -20.844,-4.131 -31.419,-5.243c-4.003,-0.422 -8.025,-0.794 -12.031,-0.678c-4.672,0.137 -9.253,0.934 -13.684,2.05c-9.325,2.346 -18.078,6.125 -25.725,11.097c-11.447,7.446 -20.644,18.234 -21.631,30.634c-0.475,5.969 1.518,12.591 8.603,15.062c7.859,2.744 15.453,4.666 23.703,2.538Z" style="fill:#c6a8d0;fill-rule:nonzero;"/><path d="M417.873,285.206c9.759,-3.406 14.059,-9.515 19.69,-17.812c13.494,-19.866 35.135,-14.747 55.844,-12.978c22.875,1.953 57.384,1.715 64.441,-26.01c0.481,-1.89 -1.675,-3.8 -3.444,-2.647c-26.766,17.469 -56.969,-0.525 -85.2,-4.512c-22.231,-3.138 -42.319,-1.716 -61.853,10.25c-12.403,7.594 -26.85,21.665 -24.675,37.781c2.172,16.1 22.172,18.109 35.197,15.928c2.972,-0.497 1.709,-5.015 -1.244,-4.519c-14.375,2.407 -16.541,0.96 -23.284,-9.903c-5.722,-9.218 -6.291,-11.134 -0.719,-19.678c5.44,-8.347 14.334,-14.544 23.131,-18.937c19.413,-9.694 39.203,-8.828 60.081,-5.166c27.816,4.878 54.403,20.119 80.935,2.806c-1.15,-0.884 -2.3,-1.765 -3.447,-2.65c-6.994,27.488 -38.741,24.816 -65.866,22.144c-10.372,-1.022 -20.069,-2.044 -27.447,-1.381c-7.528,0.678 -14.256,2.8 -19.756,8.125c-8.85,8.556 -10.569,20.081 -23.628,24.64c-2.828,0.988 -1.616,5.516 1.244,4.519Z" style="fill:#4d2d54;fill-rule:nonzero;"/><path d="M388.282,231.509c5.747,-5.056 12.938,-9.043 20.541,-11.622c23.572,-7.987 51.322,-5.771 75.737,0.638c12.731,3.344 24.941,8.409 37.963,10.616c13.022,2.209 27.687,1.034 36.843,-6.666c-2.525,7.603 -10.009,13.728 -19.081,15.616c-6.103,1.271 -12.597,0.718 -18.922,0.025c-14.54,-1.591 -28.903,-4.022 -43.247,-6.757c-13.812,-2.631 -28.996,-4.515 -42.528,-0.981c-13.043,3.409 -24.409,14.45 -30.178,24.609c-2.178,3.835 -3.803,7.982 -6.931,11.285c-3.134,3.306 -8.341,5.662 -13.281,4.384c-4.463,-1.156 -6.369,-3.506 -8.028,-7.203c-5.357,-11.941 1.643,-25.612 11.112,-33.944Z" style="fill:#838ec6;fill-rule:nonzero;"/><path d="M389.938,233.166c28.319,-22.75 69.691,-17.819 102.125,-8.029c22.166,6.694 47.472,16.147 68.488,1.363c-1.069,-1.069 -2.141,-2.141 -3.21,-3.209c-10.515,23.234 -42.956,14.012 -62.45,10.728c-16.971,-2.857 -34.184,-7.453 -51.521,-5.378c-11.932,1.425 -22.041,6.453 -30.541,14.962c-4.259,4.263 -7.453,8.95 -10.478,14.15c-1.019,1.956 -2.085,3.888 -3.191,5.794c-7.169,-2.422 -14.334,-4.844 -21.5,-7.266c-1.737,-7.662 7.581,-18.494 12.278,-23.115c2.157,-2.116 -1.159,-5.432 -3.312,-3.313c-9.638,9.478 -22.2,32.025 -6.781,42.9c17.8,12.553 27.671,-17.462 36.3,-25.837c25.543,-24.8 63.262,-10.025 94.031,-5.841c19.04,2.591 41.787,5.403 51.212,-15.416c0.863,-1.897 -1.078,-4.703 -3.203,-3.209c-27.997,19.7 -67.862,-5.375 -97.956,-8.925c-25.719,-3.038 -52.866,-0.334 -73.603,16.328c-2.353,1.888 0.984,5.188 3.312,3.313Z" style="fill:#4d2d54;fill-rule:nonzero;"/><path d="M490.86,362.484c3.925,-1.797 7.55,-4.228 10.647,-7.225c6.103,-5.906 10.178,-13.584 15.791,-19.956c14.512,-16.469 35.775,-8.553 54.772,-12.375c12.321,-2.481 21.515,-10.147 28.837,-20.041c1.356,-1.834 2.625,-3.756 3.522,-5.859c3.437,-8.075 0.919,-17.312 -1.634,-25.709c-0.229,3.79 1.565,10.597 0.281,14.168c-0.644,1.782 -1.069,2.507 -2.344,3.907c-1.178,1.293 -3.159,4.322 -4.694,5.159c-13.081,7.138 -30.018,5.909 -44.906,5.094c-13.834,-0.756 -27.659,-5.006 -41.306,-3.553c-14.01,1.493 -25.856,8.797 -36.403,16.472c-4.378,3.181 -8.644,6.468 -12.797,9.856c-8.491,6.925 -18.081,17.987 -12.438,29.578c2.697,5.541 7.982,9.5 13.722,11.741c9.269,3.618 19.894,2.884 28.95,-1.257Z" style="fill:#fedc8e;fill-rule:nonzero;"/><path d="M492.045,364.506c14.881,-7.819 19.781,-24.819 33.581,-33.181c8.603,-5.213 18.709,-5.15 28.803,-5.088c7.009,0.044 14.012,0.088 20.503,-1.634c11.425,-3.031 21.028,-10.728 27.816,-20.297c7.631,-10.756 5.787,-21.556 2.309,-33.609c-0.719,-2.481 -4.709,-2.085 -4.606,0.622c0.262,6.747 1.425,13.647 -3.591,19.168c-6.897,7.597 -20.953,7.429 -30.375,7.444c-13.231,0.025 -25.925,-2.103 -39.025,-3.631c-25.628,-2.991 -44.19,7.2 -63.825,22.744c-10.515,8.328 -24.797,21.128 -17.472,36.14c8.147,16.691 30.285,17.332 45.319,11.56c2.791,-1.069 1.578,-5.607 -1.244,-4.519c-7.331,2.812 -15.084,4.522 -22.972,2.706c-8.406,-0.769 -12.49,-5.687 -12.25,-14.753c-5.853,-7.003 -5.534,-13.066 0.947,-18.184c6.832,-7.769 16.11,-13.96 24.735,-19.632c10.603,-6.975 22.09,-12.053 34.987,-12.225c11.844,-0.159 23.65,2.947 35.447,3.854c13.331,1.028 34.241,3.146 46.088,-5.413c9.684,-6.994 8.328,-14.653 7.918,-25.259c-1.531,0.206 -3.065,0.415 -4.603,0.622c6.144,21.281 -3.059,40.359 -24.612,47.559c-7.325,2.447 -15.025,2.416 -22.713,2.381c-4.881,-0.018 -9.759,-0.04 -14.534,0.575c-24.71,3.175 -28.863,27.422 -48.997,38.003c-2.675,1.403 -0.306,5.45 2.366,4.047Z" style="fill:#4d2d54;fill-rule:nonzero;"/><path d="M472.338,338.031c17.191,-4.434 16.382,-22.309 30.725,-29.7c5.75,-2.965 12.913,-3.369 19.775,-3.184c11.422,0.303 22.794,2.022 34.213,2.666c12.234,0.69 28.203,1.94 38.344,-6.201c4.762,-3.825 8.128,-9.478 8.775,-15.553c0.537,-5.04 -0.744,-10.078 -2.019,-14.987c0.29,3.012 0.578,6.056 0.172,9.056c-0.403,3 -1.569,5.997 -3.785,8.056c-5.984,5.575 -17.909,3.36 -25.137,2.122c-9.844,-1.678 -19.238,-5.237 -28.881,-7.731c-10.26,-2.656 -20.841,-4.131 -31.419,-5.247c-4,-0.422 -8.025,-0.791 -12.028,-0.675c-4.669,0.134 -9.253,0.934 -13.688,2.05c-9.322,2.347 -18.078,6.122 -25.722,11.094c-11.45,7.45 -20.647,18.237 -21.631,30.637c-0.475,5.969 1.519,12.588 8.6,15.063c7.863,2.74 15.453,4.665 23.706,2.534Z" style="fill:#c6a8d0;fill-rule:nonzero;"/><path d="M472.96,340.294c11.219,-3.916 14.985,-11.575 21.606,-20.782c14.332,-19.918 45.857,-10.125 66.688,-9.118c27.422,1.322 50.762,-8.825 43.159,-39.947c-0.615,-2.516 -4.806,-2.05 -4.606,0.625c2,26.316 -26.572,17.297 -40.3,13.415c-11.703,-3.309 -23.144,-6.45 -35.216,-8.153c-22.231,-3.14 -42.318,-1.718 -61.856,10.247c-12.403,7.597 -26.847,21.666 -24.672,37.785c2.169,16.1 22.172,18.109 35.197,15.928c2.969,-0.5 1.71,-5.016 -1.244,-4.522c-10.84,1.815 -31.125,0.169 -28.803,-18.785c0.735,-5.981 5.975,-12.931 9.932,-17.034c7.634,-7.928 17.978,-13.419 28.3,-16.937c21.693,-7.397 45.99,-2.863 67.556,3.14c20.381,5.675 58.428,19.616 55.794,-15.084c-1.532,0.206 -3.066,0.415 -4.604,0.622c9.388,38.425 -28.106,35.503 -58.009,32.584c-9.381,-0.919 -18.016,-1.834 -24.219,-1.472c-8.393,0.488 -16.143,2.35 -22.322,8.325c-8.846,8.56 -10.565,20.085 -23.625,24.641c-2.831,0.987 -1.615,5.519 1.244,4.522Z" style="fill:#4d2d54;fill-rule:nonzero;"/><path d="M443.37,286.597c5.743,-5.056 12.937,-9.047 20.54,-11.622c23.575,-7.991 51.322,-5.772 75.738,0.637c15.743,4.132 28.803,10.269 45.434,10.7c5.709,0.15 8.894,-1.237 12.466,-5.518c2.1,-2.519 2.403,-6.053 2.368,-9.332c-0.034,-3.859 -0.571,-8.081 -3.368,-10.74c0.909,-0.834 2.347,-0.028 3.231,0.831c5.703,5.525 8.756,14.044 6.666,21.709c-3.882,14.232 -18.35,13.213 -29.997,11.938c-14.538,-1.588 -28.903,-4.019 -43.247,-6.753c-13.81,-2.631 -28.997,-4.519 -42.525,-0.981c-13.044,3.409 -24.413,14.45 -30.181,24.609c-2.175,3.834 -3.8,7.978 -6.932,11.284c-3.131,3.307 -8.34,5.66 -13.281,4.382c-4.466,-1.154 -6.366,-3.504 -8.025,-7.2c-5.359,-11.944 1.644,-25.616 11.113,-33.944Z" style="fill:#838ec6;fill-rule:nonzero;"/><path d="M445.026,288.253c36.047,-28.962 81.872,-11.994 121.294,-2.344c19.981,4.891 41.081,2.491 34.359,-23.262c3.275,12.55 7.709,27.065 -10.147,30.512c-3.453,0.666 -7.047,0.313 -10.519,0.06c-10.053,-0.738 -20.103,-2.441 -30.034,-4.113c-16.072,-2.703 -32.45,-7.081 -48.894,-5.694c-12.922,1.094 -23.965,6.063 -33.169,15.275c-4.259,4.263 -7.456,8.954 -10.481,14.154c-1.019,1.953 -2.081,3.887 -3.19,5.793c-7.166,-2.422 -14.335,-4.843 -21.5,-7.265c-1.738,-7.663 7.584,-18.494 12.281,-23.116c2.153,-2.119 -1.16,-5.434 -3.316,-3.312c-9.928,9.768 -24.206,40.287 -1.428,45.143c12,2.56 17.147,-8.534 22.238,-16.825c13.568,-22.106 35.206,-27.443 59.771,-24.181c17.213,2.284 34.16,6.159 51.435,8.15c8.959,1.031 20.294,2.775 28.15,-3.031c9.697,-7.166 10.215,-37.913 -5.95,-35.735c-1.466,0.197 -2.169,2.307 -1.4,3.444c1.015,3.185 2.031,6.372 3.047,9.556c-4.163,4.169 -8.328,8.338 -12.491,12.507c-3.503,1.347 -11.2,-1.144 -15.047,-1.963c-6.653,-1.415 -13.103,-3.709 -19.597,-5.687c-13.293,-4.05 -26.784,-7.113 -40.656,-8.275c-24.062,-2.013 -48.834,1.437 -68.072,16.897c-2.35,1.887 0.988,5.184 3.316,3.312Z" style="fill:#4d2d54;fill-rule:nonzero;"/><path d="M538.81,819.062c10.531,-0.031 21.147,-1.068 31.222,-4.65c19.684,-7.003 36.406,-23.384 56.491,-28.618c23.3,-6.075 37.981,7.125 57.247,19.522c12.568,8.087 27.075,11.14 41.396,12.143c11.229,0.788 22.838,0.313 33.166,-4.884c13.422,-6.753 23.306,-20.909 29.4,-36.422c6.094,-15.516 8.841,-32.487 11.534,-49.262c-23.243,36.118 -66.709,52.49 -103.646,39.04c-14.791,-5.387 -24.675,-17.694 -38.088,-25.89c-15.572,-9.519 -34.278,-7.357 -51.684,-4.544c-9.478,1.531 -18.972,3.194 -28.16,6.29c-5.05,1.7 -9.984,3.822 -14.915,5.947c-10.966,4.722 -22.044,9.513 -32.06,16.647c-4.631,3.297 -8.718,7.4 -13.434,10.431c-4.444,2.857 -8.238,6.538 -11.022,11.622c-15.181,27.707 16.338,32.628 32.553,32.628Z" style="fill:#fedc8e;fill-rule:nonzero;"/><path d="M538.81,821.406c12.756,-0.256 25.063,-1.672 36.894,-6.744c12.859,-5.512 23.969,-14.25 36.397,-20.568c20.053,-10.2 37.034,-8.322 55.669,3.468c12.468,7.894 23.509,15.854 38.059,19.375c22.006,5.332 47.812,5.791 65.278,-10.618c21.256,-19.972 26.006,-51.497 30.419,-78.807c0.419,-2.584 -2.731,-4.096 -4.285,-1.806c-23.912,35.344 -73.634,57.053 -112.653,31.781c-15.231,-9.862 -25.85,-23.168 -44.762,-26.028c-18.191,-2.753 -39.747,1.407 -57.213,6.372c-18.153,5.156 -37.765,13.506 -53.084,24.528c-11.738,8.444 -27.222,18.119 -29.363,33.985c-2.818,20.928 23.31,24.837 38.644,25.062c3.016,0.047 3.019,-4.64 0,-4.687c-10.962,-0.163 -29.444,-1.238 -33.334,-13.75c-5.856,-18.841 26.306,-37.55 39.79,-44.628c35.66,-18.707 86.941,-35.822 121.954,-8.457c20.781,16.25 40.562,26.194 67.825,22.066c27.7,-4.194 50.768,-21 66.246,-43.875c-1.428,-0.603 -2.856,-1.206 -4.284,-1.806c-4.562,28.218 -9.469,65.234 -35.937,82.04c-29.304,18.603 -65.522,1.285 -90.935,-14.793c-17.359,-10.982 -34.062,-14.844 -53.569,-6.732c-10.721,4.46 -20.193,11.303 -30.206,17.072c-15.25,8.785 -29.969,12.51 -47.55,12.863c-3.012,0.062 -3.022,4.75 0,4.687Z" style="fill:#4d2d54;fill-rule:nonzero;"/><path d="M523.816,791.147c21.085,5.997 42.629,-2.575 60.916,-14.663c15.528,-10.265 33.419,-24.278 52.025,-24.834c16.834,-0.506 29.666,12.637 43.409,21.75c14.957,9.922 32.085,15.387 49.288,15.6c17.547,0.216 35.669,-5.322 48.912,-18.772c13.36,-13.575 20.425,-33.509 27.041,-52.697c-20.619,17.8 -45.122,32.61 -70.672,30.106c-34.175,-3.356 -60.659,-36.1 -93.109,-49.056c-21.269,-8.487 -44.703,-8.112 -66.456,-1.519c-17.575,5.325 -34.119,14.579 -49.41,25.916c-13.809,10.238 -18.359,24.706 -19.865,43.922c-1.063,13.622 7.128,21.175 17.921,24.247Z" style="fill:#c6a8d0;fill-rule:nonzero;"/><path d="M523.191,793.406c29.822,6.794 52.938,-8.828 76.882,-24.403c16.697,-10.862 34.987,-20.037 54.478,-10.269c13.634,6.838 24.362,18.078 38.425,24.394c21.837,9.809 48.634,11.778 70.453,0.759c25.534,-12.89 35.444,-40.362 44.241,-65.734c0.831,-2.403 -2.288,-3.656 -3.919,-2.278c-19.113,16.097 -42.181,31.628 -68.366,29.297c-19.022,-1.694 -35.259,-12.572 -50.565,-23.178c-29.188,-20.235 -56.691,-36.541 -93.7,-30.932c-27.244,4.132 -66.641,19.929 -80.272,45.772c-10.625,20.144 -12.475,48.103 12.343,56.572c2.863,0.978 4.091,-3.55 1.247,-4.519c-21.272,-7.259 -18.456,-33.006 -9.543,-49.687c8,-14.975 25.596,-24.519 40.431,-31.713c37.172,-18.025 75.012,-16.184 109.534,6.425c21.503,14.082 42.588,33.229 69.253,35.982c27.853,2.881 52.635,-13.594 72.95,-30.707c-1.306,-0.759 -2.612,-1.518 -3.915,-2.278c-10.703,30.882 -23.941,62.375 -59.941,68.678c-32.406,5.675 -54.906,-11.168 -80.497,-27.478c-16.672,-10.618 -32.306,-10.597 -49.903,-2.025c-29.422,14.341 -52.325,41.013 -88.369,32.803c-2.937,-0.671 -4.19,3.847 -1.247,4.519Z" style="fill:#4d2d54;fill-rule:nonzero;"/><path d="M605.207,675.534c20.35,-0.322 45.269,4.116 62.584,17.31c12.838,9.781 22.607,22.406 34.591,33.315c11.856,10.785 24.938,12.947 39.488,13.797c28.334,1.653 58.418,-9.375 76.975,-35.469c-10.569,40.782 -48.81,64.529 -85.232,67.022c-42.484,2.91 -67.731,-50 -109.006,-53.578c-23.056,-2 -46.797,4.772 -65.962,20.047c-11.385,9.075 -20.732,25.797 -33.504,31.647c-6.796,3.112 -15.365,2.556 -20.403,-3.616c-20.606,-25.256 34.71,-68.337 50.1,-77.237c14.616,-8.453 32.338,-12.953 50.369,-13.238Z" style="fill:#838ec6;fill-rule:nonzero;"/><path d="M605.207,677.878c28.009,0.034 52.547,7.45 72.938,27.184c15.187,14.694 27.193,31.354 49.031,35.597c35.812,6.963 71.709,-5.856 93.69,-34.987c-1.428,-0.6 -2.856,-1.203 -4.284,-1.806c-13.344,46.271 -71.341,82.99 -116.584,55.812c-32.382,-19.447 -53.603,-48.934 -95.197,-43.662c-20.031,2.537 -39.594,11.503 -53.853,25.903c-7.732,7.806 -13.972,18.097 -23.588,23.831c-18.187,10.844 -27.819,-7.725 -22.915,-21.959c5.843,-16.96 22.393,-31.225 36.065,-42.082c18.966,-15.062 40.238,-22.872 64.697,-23.831c3.009,-0.119 3.022,-4.806 0,-4.687c-36.253,1.421 -65.566,18.518 -89.391,45.09c-11.112,12.394 -32.809,50.785 -1.537,55.36c17.756,2.6 29.484,-17.922 39.984,-28.41c19.825,-19.803 53.066,-31.106 80.607,-22.919c34.509,10.26 55.162,49.688 93.068,51.566c42.185,2.091 81.772,-29.266 93.166,-68.766c0.787,-2.737 -2.778,-3.803 -4.284,-1.806c-28.104,37.247 -86.113,48.213 -120.497,13.719c-13.522,-13.566 -25.725,-27.888 -43.769,-35.463c-14.959,-6.281 -31.238,-8.353 -47.347,-8.371c-3.016,-0.007 -3.019,4.681 0,4.687Z" style="fill:#4d2d54;fill-rule:nonzero;"/><path d="M168.751,914.834c-11.872,24.238 -30.456,60.428 -17.828,81.535c11.512,19.253 37.606,4.493 48.753,-7.297c9.244,-9.781 15.478,-21.941 21.925,-33.75c23.6,-43.253 62.384,-61.706 105.081,-82.388c24.944,-12.081 52.538,-32.09 52.522,-62.772c-0.031,-62.081 -85.497,-68.996 -127.225,-46.725c-24.147,12.888 -34.175,40.516 -45.041,63.972c-11.703,25.26 -21.79,50.947 -32.978,76.4c-1.431,3.257 -3.228,6.975 -5.209,11.025Z" style="fill:#fcf7fa;fill-rule:nonzero;"/><path d="M199.67,989.072c5.8,-6.138 10.412,-13.21 14.64,-20.547c-1.081,-1.447 -2.581,-2.759 -4.669,-3.856c-5.031,-2.65 -11.125,-0.222 -16.265,2.203c3.094,-1.46 -2.428,-9.772 -3.638,-10.872c-2.925,-2.644 -7.909,-5.25 -11.95,-5.209c-2.065,0.025 -10.69,2.95 -9.15,6.503c-1.053,-2.428 -0.484,-5.328 -1.543,-7.75c-0.9,-2.053 -2.854,-3.466 -4.9,-4.385c-2.444,-1.097 -4.772,-1.372 -6.982,-1.037c-7.612,18.862 -12.418,38.672 -4.293,52.247c11.512,19.253 37.606,4.493 48.75,-7.297Z" style="fill:#e26d90;fill-rule:nonzero;"/><path d="M212.532,966.619c-0.809,-0.703 -1.766,-1.36 -2.891,-1.95c-1.553,-0.819 -3.206,-1.153 -4.903,-1.153c-3.162,0 -6.475,1.165 -9.543,2.521c2.659,-6.034 4.962,-12.259 7.328,-18.409c14.85,-38.616 42.615,-61.312 74.575,-83.069c9.725,6.325 20.231,11.347 31.215,15.15c-29.512,15.107 -58.109,31.119 -78.368,58.247c-4.038,5.319 -7.785,11.078 -11.216,17.366c-2.05,3.759 -4.081,7.556 -6.197,11.297Z" style="fill:#ecd1e5;fill-rule:nonzero;"/><path d="M169.863,1003.33c-1.434,0 -2.897,-0.103 -4.403,-0.318c-0.928,-0.132 -1.812,-0.3 -2.656,-0.507c9.075,-3.9 17.622,-11.847 22.444,-18.531c4.015,-5.572 7.172,-11.653 9.947,-17.941c3.068,-1.356 6.381,-2.521 9.543,-2.521c1.697,0 3.35,0.334 4.903,1.153c1.125,0.59 2.082,1.247 2.891,1.95c-4.525,8.012 -9.428,15.784 -15.728,22.453c-4.303,4.553 -10.834,9.534 -17.894,12.825c-2.859,0.928 -5.869,1.437 -9.047,1.437Z" style="fill:#d55c84;fill-rule:nonzero;"/><path d="M166.726,913.65c-10.466,21.331 -26.278,48.147 -21.766,72.919c3.697,20.318 21.36,25.39 38.61,17.09c26.221,-12.612 34.071,-41.359 50.278,-63.2c19.597,-26.406 48.259,-42.903 77.175,-57.284c23.028,-11.453 48.475,-22.275 62.478,-45.222c10.419,-17.072 10.8,-39.581 0.437,-56.828c-19.968,-33.244 -69.631,-36.488 -103.262,-27.4c-26.31,7.106 -42.616,24.353 -54.619,48.356c-18.2,36.394 -31.544,75.01 -49.331,111.569c-1.316,2.7 2.725,5.081 4.047,2.366c12.175,-25.019 21.937,-51.172 33.265,-76.572c9.8,-21.982 18.732,-48.738 37.032,-65.272c26.787,-24.203 76.931,-26.594 108.021,-9.741c17.204,9.322 27.944,25.925 27.769,45.731c-0.25,28.275 -24.69,47.047 -47.606,58.875c-38.578,19.913 -78.569,37.266 -103.456,74.807c-13.197,19.903 -29.066,63.637 -60.338,59.172c-37.359,-5.335 -2.828,-70.407 5.313,-87c1.325,-2.7 -2.719,-5.079 -4.047,-2.366Z" style="fill:#4d2d54;fill-rule:nonzero;"/><path d="M278.995,572.975c-2.813,0.828 -5.616,1.537 -8.366,2.134c-25.906,5.635 -73.25,12.732 -95.697,-5.775c-12.709,-10.478 -16.544,-30.334 -11.337,-45.587c5.068,-14.853 18.893,-22.438 32.662,-27.9c33.881,-13.444 74.85,-21.181 108.225,-1.6c14.297,8.387 21.831,25.087 17.828,41.669c-4.897,20.268 -24.278,31.443 -43.315,37.059Z" style="fill:#fcf7fa;fill-rule:nonzero;"/><path d="M221.145,581.281c-0.185,0 -0.366,0 -0.554,0c18.16,-0.065 36.869,-3.309 50.038,-6.172c1.287,-0.278 2.584,-0.584 3.891,-0.912c0.162,0.053 0.325,0.103 0.484,0.156c-1.094,0.269 -2.188,0.522 -3.269,0.756c-13.3,2.894 -32.259,6.172 -50.59,6.172Z" style="fill:#94abd8;fill-rule:nonzero;"/><path d="M220.591,581.281c-17.175,-0.062 -33.746,-3.037 -44.55,-11.947c-2.771,-2.284 -5.121,-5.018 -7.05,-8.05c3.054,3.485 6.791,6.366 11.235,8.35c4.681,2.088 9.725,3.007 14.831,3.007c0.175,0 0.35,0 0.522,-0.004c6.819,-0.062 13.725,-1.753 19.997,-4.481c10.231,-4.447 19.112,-11.39 27.769,-18.459c8.05,11.319 18.218,20.262 31.175,24.5c-1.307,0.328 -2.604,0.634 -3.891,0.912c-13.169,2.863 -31.878,6.107 -50.038,6.172Z" style="fill:#ecd1e5;fill-rule:nonzero;"/><path d="M284.495,189.075c-18.254,-1.078 -34.997,6.319 -55.444,16.437c-43.972,21.763 -27.544,64.635 -6.688,97.632c15.394,24.353 34.722,46.131 48.522,71.509c13.897,25.553 22.331,55.284 26.844,83.931c9.459,60.063 1.806,124.928 -28.228,178.428c-28.785,51.269 -61.681,108.36 -38.169,168.372c19.553,49.907 67.841,76.863 119.553,80.507c119.566,8.421 194.388,-90.325 215.703,-197.994c36.6,-184.897 -90.422,-400.8 -250.89,-489.031c-11.353,-6.241 -21.491,-9.216 -31.203,-9.791Z" style="fill:#fcf7fa;fill-rule:nonzero;"/><path d="M364.376,884.269c-24.594,0.003 -49.085,-5.141 -71.1,-15.941c-26.869,-13.181 -48.688,-35.584 -59.685,-63.566c-13.14,-33.437 -7.968,-68.887 4.938,-101.478c12.272,-31.006 31.756,-58.306 44.628,-88.947c5.113,-12.162 9.222,-24.703 12.391,-37.478c11.078,-0.525 21.381,-3.953 30.622,-9.409c-5.05,16.769 -11.807,32.987 -20.391,48.275c-28.781,51.269 -61.681,108.359 -38.169,168.375c16.438,41.95 64.572,71.459 109.147,71.456c8.45,0 16.778,-1.062 24.731,-3.3c3.272,9.05 8.797,16.969 15.719,24.066c-17.05,5.234 -34.966,7.947 -52.831,7.947Z" style="fill:#ecd1e5;fill-rule:nonzero;"/><path d="M284.495,186.731c-25.154,-0.45 -61.16,11.96 -76.866,32.703c-13.506,17.838 -8.934,40.975 -0.691,60.016c12.407,28.647 33.575,52.15 50.685,77.931c22.197,33.45 34.281,71.869 39.215,111.544c4.622,37.178 2.663,75.384 -7.065,111.619c-10.072,37.503 -31.578,68.684 -47.913,103.418c-26.222,55.76 -31.237,120.719 17.041,166.304c39.303,37.115 99.506,45.8 150.619,33.125c50.037,-12.41 90.703,-46.922 118.087,-89.782c62.734,-98.178 57.559,-223.384 16.631,-328.681c-24.034,-61.822 -59.722,-119.094 -104.031,-168.419c-22.059,-24.556 -46.397,-47.103 -72.809,-66.918c-23.947,-17.966 -52.21,-39.96 -82.903,-42.86c-3.004,-0.281 -2.982,4.407 0,4.688c28.096,2.653 54.871,23.275 77.028,39.612c22.55,16.628 43.572,35.3 62.993,55.488c39.15,40.687 71.975,87.559 96.941,138.197c47.775,96.89 67.172,212.025 27.794,315.193c-18.45,48.347 -49.947,93.725 -95.222,120.297c-47.684,27.981 -110.653,32.7 -160.753,8.122c-26.869,-13.181 -48.688,-35.584 -59.685,-63.566c-13.14,-33.437 -7.968,-68.887 4.938,-101.478c12.272,-31.006 31.756,-58.306 44.628,-88.947c11.347,-27 17.756,-55.862 19.909,-85.037c5.222,-70.744 -13.846,-137.063 -55.415,-194.153c-17.619,-24.2 -39.681,-51 -43.503,-81.797c-5.041,-40.647 46.156,-62.544 80.347,-61.931c3.018,0.056 3.018,-4.632 0,-4.688Z" style="fill:#4d2d54;fill-rule:nonzero;"/><path d="M390.451,390.034c76.025,-84.45 -45.297,-174.922 -122.1,-185.509c-13.269,-1.828 -27.128,-2.203 -39.706,2.391c-30.525,11.143 -30.532,49.378 -30.113,76.993c0.494,32.288 4.047,64.444 7.6,96.541c5.438,49.144 6.972,95.041 25.966,141.578c7.228,17.713 16.803,35.741 33.253,45.509c31.181,18.516 73.706,-2.318 91.437,-33.953c17.732,-31.634 17.522,-69.843 17.11,-106.103c-0.075,-6.519 -0.103,-13.24 2.372,-19.269c2.94,-7.15 9.009,-12.431 14.181,-18.178Z" style="fill:#fcf7fa;fill-rule:nonzero;"/><path d="M570.26,630.441c-3.409,-52.669 -17.703,-105.75 -40.147,-155.941c0.007,-0.003 0.016,-0.009 0.022,-0.009l0,0.003c3.547,-1.638 7.1,-3.482 10.638,-5.478c19.628,51.584 30.778,106.703 29.487,161.425Zm-89.775,-243.907c-21.631,-31.29 -46.353,-60.247 -73.237,-85.74c-22.082,-49.838 -89.644,-89.478 -138.897,-96.269c-5.544,-0.763 -11.191,-1.275 -16.803,-1.275c-2.853,0 -5.697,0.134 -8.513,0.431c1.05,-1.806 2.266,-3.562 3.66,-5.265c12.143,-4.629 25.115,-7.01 36.39,-7.01c0.475,0 0.941,0.006 1.41,0.013c28.096,2.653 54.871,23.275 77.028,39.612c22.55,16.628 43.572,35.3 62.993,55.488c25.51,26.512 48.335,55.647 68.047,86.744c-4.406,4.096 -8.462,8.503 -12.078,13.271Z" style="fill:#ecd1e5;fill-rule:nonzero;"/><path d="M230.754,206.197c4.975,-3.06 10.372,-5.656 15.941,-7.781c-1.394,1.703 -2.61,3.459 -3.66,5.265c-4.172,0.438 -8.284,1.241 -12.281,2.516Z" style="fill:#deb1d0;fill-rule:nonzero;"/><path d="M570.682,638.137c-0.116,-2.562 -0.256,-5.131 -0.422,-7.696c1.291,-54.722 -9.859,-109.841 -29.487,-161.425c0.184,-0.107 0.365,-0.207 0.55,-0.313c21,55.184 31.931,113.056 29.359,169.434Zm-78.119,-264.874c-19.712,-31.097 -42.537,-60.232 -68.047,-86.744c-19.421,-20.188 -40.443,-38.86 -62.993,-55.488c-22.157,-16.337 -48.932,-36.959 -77.028,-39.612c-0.469,-0.007 -0.935,-0.013 -1.41,-0.013c-11.275,0 -24.247,2.381 -36.39,7.01c-5.569,2.125 -10.966,4.721 -15.941,7.781l-0.003,0c-0.175,-0.825 -0.713,-1.528 -1.5,-1.694c18.209,-8.95 33.553,-15.531 49.847,-15.531c1.178,0 2.359,0.034 3.55,0.103c9.709,0.575 19.85,3.55 31.203,9.791c69.59,38.265 132.884,100.534 179.272,173.881c-0.188,0.169 -0.372,0.344 -0.56,0.516Zm-292.072,-137.054c1.444,-6.456 4.416,-12.54 9.335,-18.015c-4.222,5.265 -7.225,11.39 -9.335,18.015Z" style="fill:#48254d;fill-rule:nonzero;"/><path d="M407.248,300.794c-28.978,-27.475 -60.478,-50.938 -93.397,-69.038c-11.353,-6.24 -21.494,-9.215 -31.203,-9.79c-1.191,-0.072 -2.369,-0.107 -3.547,-0.107c-16.9,0 -32.781,7.085 -51.897,16.544c-3.706,1.834 -6.984,3.819 -9.866,5.934c2.782,-11.962 6.457,-24.84 12.528,-35.509c0.516,-0.403 0.804,-0.962 0.907,-1.544c0.181,-0.306 0.368,-0.606 0.556,-0.903c-0.175,0.056 -0.35,0.11 -0.525,0.163c-0.013,-0.119 -0.028,-0.235 -0.053,-0.347l0.003,0c3.997,-1.275 8.109,-2.078 12.281,-2.516c2.816,-0.297 5.66,-0.431 8.513,-0.431c5.612,0 11.259,0.512 16.803,1.275c49.253,6.791 116.815,46.431 138.897,96.269Z" style="fill:#ecd1e5;fill-rule:nonzero;"/><path d="M290.163,572.862c-12.753,0 -23.506,-4.981 -32.593,-13.512c20.55,-0.997 41.862,-11.138 55.928,-26.641c18.178,-20.031 27.447,-45.868 34.19,-72.409c11.791,-15.456 17.444,-30.172 10.66,-41.616c0.643,-1.315 1.381,-2.584 2.234,-3.79c4.344,-6.138 11.178,-9.888 17.372,-14.175c-9.259,13.975 -6.156,31.528 -6.309,47.634c-0.422,44.463 -7.982,96.144 -52.882,117.297c-10.509,4.953 -20.009,7.212 -28.6,7.212Z" style="fill:#ecd1e5;fill-rule:nonzero;"/><path d="M203.323,329.934c-1.797,-20.75 -3.032,-41.634 -2.432,-62.434c0.063,-2.228 0.16,-4.481 0.307,-6.744c0.247,1.063 0.515,2.128 0.809,3.194c2.675,-7.25 7.566,-13.906 15.331,-19.613c-0.762,3.285 -1.459,6.5 -2.118,9.582c-5.369,25.09 -8.832,50.531 -11.897,76.015Z" style="fill:#ecd1e5;fill-rule:nonzero;"/><path d="M202.007,263.95c-0.294,-1.066 -0.562,-2.131 -0.809,-3.194c1.34,-20.95 6.772,-42.665 28.068,-51.578c0.225,-0.097 0.425,-0.216 0.6,-0.35c-6.071,10.669 -9.746,23.547 -12.528,35.509c-7.765,5.707 -12.656,12.363 -15.331,19.613Zm28.766,-56.666c0.043,-0.247 0.05,-0.497 0.031,-0.74c0.175,-0.053 0.35,-0.107 0.525,-0.163c-0.188,0.297 -0.375,0.597 -0.556,0.903Z" style="fill:#deb1d0;fill-rule:nonzero;"/><path d="M228.02,204.656c-36.335,15.21 -32.766,61.678 -31.382,94.378c1.316,31.028 5.178,61.828 8.344,92.7c2.834,27.622 4.966,55.407 10.522,82.66c7.612,37.334 23.375,96.172 68.837,102.006c41.979,5.387 74.966,-31.272 85.244,-68.256c7.856,-28.272 5.306,-56.7 6.647,-85.575c0.909,-19.56 16.338,-29.147 26.306,-44.219c7.06,-10.672 11.603,-22.191 13.657,-34.813c0.484,-2.95 -4.035,-4.218 -4.519,-1.246c-3.931,24.134 -18.416,38.087 -32.475,56.668c-10.775,14.244 -7.397,32.607 -7.556,49.394c-0.422,44.463 -7.982,96.144 -52.882,117.297c-104.593,49.281 -109.1,-168.172 -114.409,-224.353c-2.316,-24.475 -4.172,-49.194 -3.463,-73.797c0.66,-22.853 4.779,-48.447 28.375,-58.322c2.741,-1.15 1.538,-5.687 -1.246,-4.522Z" style="fill:#4d2d54;fill-rule:nonzero;"/><path d="M714.048,298.291c7.425,0.446 14.709,1.59 21.715,3.646c4.491,1.319 8.953,3.179 12.353,6.4c11.616,11 2.241,32.535 -8.028,41.013c-11.712,9.666 -27.172,13.072 -41.603,17.8c-37.04,12.147 -67.944,36.366 -98.753,59.4c-25.584,19.125 -71.119,60.456 -105.653,55.194c-27.231,-4.153 -34.256,-36.472 -29.822,-59.122c8.081,-41.241 42.35,-64.619 78.522,-80.413c30.287,-13.221 61.406,-24.834 93.553,-32.687c24.031,-5.872 51.756,-12.794 77.716,-11.231Z" style="fill:#fcf7fa;fill-rule:nonzero;"/><path d="M748.116,308.137c-3.4,-3.218 -7.862,-5.075 -12.353,-6.396c-7.006,-2.06 -14.29,-3.2 -21.715,-3.647c-11.141,-0.672 -22.597,0.268 -33.957,1.972c0.044,0.778 0.082,1.55 0.244,2.4c1.166,6.134 7.416,9.709 13.019,12.465c-3.372,-1.659 -6.738,8.769 -6.85,10.56c-0.275,4.321 0.897,10.384 3.7,13.828c1.431,1.756 9.841,7.162 11.841,3.409c-1.369,2.566 -4.244,4.059 -5.6,6.628c-1.15,2.178 -1.029,4.819 -0.419,7.206c1.122,4.385 3.74,7.175 7.197,8.891c13.012,-4.041 26.425,-7.684 36.862,-16.3c10.272,-8.478 19.647,-30.009 8.031,-41.016Z" style="fill:#e26d90;fill-rule:nonzero;"/><path d="M544.891,466.619c-0.003,-0.007 0,0.003 -0.003,-0.003c20.875,-12.491 40.847,-29.604 54.844,-40.066c30.809,-23.034 61.713,-47.253 98.753,-59.4c14.431,-4.728 29.891,-8.134 41.603,-17.8c2.419,-1.997 4.788,-4.719 6.847,-7.856c-2.053,3.137 -4.422,5.859 -6.84,7.856c-11.71,9.666 -27.172,13.072 -41.6,17.8c-37.044,12.147 -67.947,36.366 -98.757,59.4c-14,10.466 -33.972,27.578 -54.847,40.069Z" style="fill:#94abd8;fill-rule:nonzero;"/><path d="M541.323,468.703l0,-0.003c1.193,-0.678 2.378,-1.372 3.565,-2.084c0.003,0.006 0,-0.004 0.003,0.003c-1.184,0.709 -2.378,1.406 -3.568,2.084Z" style="fill:#48254d;fill-rule:nonzero;"/><path d="M530.135,474.494l0,-0.003c3.547,-1.638 7.097,-3.482 10.638,-5.479l0,0.004c-3.538,1.996 -7.091,3.84 -10.638,5.478Z" style="fill:#deb1d0;fill-rule:nonzero;"/><path d="M540.773,469.016l0,-0.004c0.181,-0.103 0.368,-0.209 0.55,-0.312l0,0.003c-0.185,0.106 -0.366,0.206 -0.55,0.313Z" style="fill:#442046;fill-rule:nonzero;"/><path d="M530.135,474.491l-8.569,-18.819c28.575,-10.3 58.985,-37.138 78.172,-51.481c30.81,-23.032 61.713,-47.253 98.757,-59.397c0.921,-0.303 1.85,-0.6 2.778,-0.894c-1.488,1.906 -3.694,3.303 -4.828,5.456c-1.15,2.178 -1.029,4.819 -0.419,7.206c1.122,4.385 3.74,7.175 7.197,8.891c13.012,-4.041 26.425,-7.684 36.862,-16.3c5.975,-4.934 11.65,-14.284 13.06,-23.412c-0.8,5.493 -3.157,11.084 -6.21,15.753c-2.059,3.137 -4.428,5.859 -6.847,7.856c-11.712,9.666 -27.172,13.072 -41.603,17.8c-37.04,12.147 -67.944,36.366 -98.753,59.4c-13.997,10.462 -33.969,27.575 -54.844,40.066c-1.187,0.712 -2.372,1.406 -3.565,2.084c-0.182,0.103 -0.369,0.209 -0.55,0.312c-3.541,1.997 -7.091,3.841 -10.638,5.479Z" style="fill:#ecd1e5;fill-rule:nonzero;"/><path d="M703.223,365.453c-3.457,-1.716 -6.075,-4.506 -7.197,-8.891c-0.61,-2.387 -0.731,-5.028 0.419,-7.206c1.134,-2.153 3.34,-3.55 4.828,-5.456c13.612,-4.3 27.859,-7.859 38.822,-16.906c4.181,-3.453 8.184,-9.078 10.712,-15.263c2.506,4.081 3.069,9.006 2.338,14.01c-1.41,9.128 -7.085,18.478 -13.06,23.412c-10.437,8.616 -23.85,12.259 -36.862,16.3Z" style="fill:#d55c84;fill-rule:nonzero;"/><path d="M320.891,406.987c10.529,-2.265 20.894,-2.246 28.825,3.079c50.444,33.875 -80.981,118.721 -104.284,137.825c-9.359,7.675 -18.875,15.44 -29.972,20.265c-11.097,4.825 -24.181,6.41 -35.234,1.478c-16.747,-7.468 -23.494,-27.728 -21.103,-44.872c3.759,-26.993 29.381,-44.203 49.678,-58.953c32.572,-23.678 72.078,-50.2 112.09,-58.822Z" style="fill:#fcf7fa;fill-rule:nonzero;"/><path d="M349.716,410.066c-7.931,-5.325 -18.296,-5.344 -28.825,-3.079c-14.556,3.138 -29.04,8.663 -43.153,15.538c-0.222,2.575 0.422,5.366 2.244,8.391c3.225,5.343 10.331,6.525 16.541,7.165c-3.738,-0.384 -3.269,10.56 -2.753,12.278c1.243,4.147 4.45,9.425 8.275,11.682c1.953,1.15 11.718,3.296 12.287,-0.916c-0.387,2.878 -2.569,5.278 -2.947,8.159c-0.322,2.441 0.71,4.878 2.113,6.9c3.562,5.144 8.697,6.588 14.378,5.8c28,-27.087 46.297,-55.493 21.84,-71.918Z" style="fill:#e26d90;fill-rule:nonzero;"/><path d="M195.579,572.637c6.778,-0.081 13.644,-1.768 19.881,-4.481c10.256,-4.456 19.16,-11.431 27.841,-18.519c0.012,0.019 0.028,0.041 0.044,0.06c-8.657,7.069 -17.538,14.012 -27.769,18.459c-6.272,2.728 -13.178,4.419 -19.997,4.481Z" style="fill:#deb1d0;fill-rule:nonzero;"/><path d="M246.948,546.769c-0.013,-0.022 -0.028,-0.041 -0.041,-0.063c17.15,-13.531 74.522,-51.975 100.841,-86.64c-0.019,0.078 -0.038,0.156 -0.06,0.234c-26.437,34.653 -83.722,73.019 -100.74,86.469Zm111.347,-127.975c-1.86,-3.178 -4.675,-6.107 -8.579,-8.728c-0.031,-0.019 -0.062,-0.041 -0.093,-0.063c-0.013,-0.006 -0.022,-0.012 -0.032,-0.022c-0.081,-0.053 -0.162,-0.106 -0.243,-0.156c-0.191,-0.125 -0.382,-0.244 -0.575,-0.359l0,-0.004c0.35,0.21 0.718,0.375 1.059,0.604c3.863,2.593 6.656,5.481 8.516,8.618c-0.016,0.038 -0.035,0.075 -0.053,0.11Z" style="fill:#ecd1e5;fill-rule:nonzero;"/><path d="M347.688,460.3c0.022,-0.078 0.041,-0.156 0.06,-0.234c11.634,-15.322 17.2,-29.904 10.547,-41.272c0.018,-0.035 0.037,-0.072 0.053,-0.11c6.784,11.444 1.131,26.16 -10.66,41.616Z" style="fill:#deb1d0;fill-rule:nonzero;"/><path d="M243.345,549.697c-0.016,-0.019 -0.032,-0.041 -0.044,-0.06c0.712,-0.584 1.422,-1.165 2.131,-1.746c0.45,-0.372 0.944,-0.766 1.475,-1.185c0.013,0.022 0.028,0.041 0.041,0.063c-0.5,0.393 -0.969,0.768 -1.397,1.122c-0.735,0.603 -1.472,1.203 -2.206,1.806Z" style="fill:#48254d;fill-rule:nonzero;"/><path d="M195.176,572.641c-5.103,0 -10.15,-0.919 -14.831,-3.007c-6.035,-2.693 -10.747,-7.056 -14.225,-12.325c1.343,0.869 2.743,1.678 4.25,2.35c4.684,2.091 9.728,3.01 14.834,3.01c6.947,-0.003 14.003,-1.703 20.4,-4.485c11.097,-4.825 20.612,-12.597 29.972,-20.268c11.412,-9.357 48.756,-34.482 77.965,-61.666c2.963,4.237 7.004,5.934 11.538,5.937c0.916,0 1.85,-0.071 2.797,-0.203c28,-27.087 46.297,-55.493 21.84,-71.918c3.904,2.621 6.719,5.55 8.579,8.728c6.653,11.368 1.087,25.95 -10.547,41.272c-26.319,34.665 -83.691,73.109 -100.841,86.64c-0.531,0.419 -1.025,0.813 -1.475,1.185c-0.709,0.581 -1.419,1.162 -2.131,1.746c-8.681,7.088 -17.585,14.063 -27.841,18.519c-6.237,2.713 -13.103,4.4 -19.881,4.481c-0.134,0.004 -0.269,0.004 -0.403,0.004Zm154.447,-162.638c-0.013,-0.006 -0.022,-0.012 -0.032,-0.022c0.01,0.01 0.019,0.016 0.032,0.022Zm-0.275,-0.178c-0.191,-0.125 -0.382,-0.244 -0.575,-0.359l0,-0.004c0.193,0.119 0.384,0.238 0.575,0.363Z" style="fill:#ecd1e5;fill-rule:nonzero;"/><path d="M325.079,482.187c-4.534,-0.003 -8.575,-1.7 -11.538,-5.937c25.504,-23.734 44.807,-49.041 35.232,-66.788c0.193,0.119 0.384,0.238 0.575,0.363c0.081,0.05 0.162,0.103 0.243,0.156c0.01,0.01 0.019,0.016 0.032,0.022c0.031,0.022 0.062,0.044 0.093,0.063c24.457,16.425 6.16,44.831 -21.84,71.918c-0.947,0.132 -1.881,0.203 -2.797,0.203Z" style="fill:#d55c84;fill-rule:nonzero;"/><path d="M202.654,233.531c-10.269,-3.959 -20.672,-7.95 -31.6,-9.244c-10.928,-1.293 -22.619,0.385 -31.494,6.891c-1.659,1.216 -3.265,2.675 -3.981,4.603c-0.597,1.61 -0.516,3.388 -0.263,5.085c1.185,7.959 5.85,14.984 11.169,21.021c7.21,8.191 16.028,15.219 26.3,18.897c10.272,3.678 22.11,3.725 31.785,-1.318" style="fill:#fcf7fa;fill-rule:nonzero;"/><path d="M203.276,231.272c-16.719,-6.41 -35.36,-13.272 -53.353,-7.735c-10.019,3.082 -18.803,8.529 -16.432,19.9c6.266,30.022 44.841,49.96 72.26,38.054c2.762,-1.2 0.378,-5.238 -2.363,-4.047c-22.5,9.768 -55.887,-5.782 -63.478,-29.916c-10.772,-34.247 48.81,-16.841 62.122,-11.737c2.816,1.081 4.038,-3.45 1.244,-4.519Z" style="fill:#4d2d54;fill-rule:nonzero;"/><path d="M196.129,246.372c3.378,1.019 6.556,2.597 9.716,4.169c0.618,0.309 1.25,0.625 1.762,1.093c0.728,0.663 1.163,1.591 1.491,2.522c1.125,3.206 1.143,6.788 0.05,10.006c-0.194,0.572 -0.428,1.144 -0.828,1.597c-0.51,0.578 -1.241,0.91 -1.969,1.163c-2.913,1.022 -6.1,1.081 -9.138,0.534c-3.037,-0.544 -5.937,-1.675 -8.731,-2.99c-3.537,-1.669 -6.984,-3.682 -9.647,-6.547c-2.456,-2.641 -5.503,-7.794 -4.122,-11.591c0.688,-1.887 3.447,-1.406 5.082,-1.472c2.565,-0.103 5.137,-0.125 7.7,0.044c2.918,0.191 5.828,0.631 8.634,1.472Z" style="fill:#f598a5;fill-rule:nonzero;"/><path d="M206.076,264.3c-5.144,0.275 -10.56,0.5 -15.553,-1.003c-6.394,-1.928 -15.328,-7.997 -13.597,-15.647c0.665,-2.941 -3.853,-4.194 -4.519,-1.247c-1.831,8.088 3.403,13.781 9.753,17.953c7.253,4.763 15.453,5.082 23.916,4.631c3,-0.159 3.022,-4.846 0,-4.687Z" style="fill:#4d2d54;fill-rule:nonzero;"/><path d="M207.116,248.184c-17.128,-9.309 -37.353,-8.462 -53.531,2.497c-2.484,1.681 -0.144,5.747 2.363,4.047c14.809,-10.031 33.025,-11.072 48.806,-2.497c2.65,1.444 5.019,-2.603 2.362,-4.047Z" style="fill:#4d2d54;fill-rule:nonzero;"/><path d="M257.938,251.253c12.65,-22.012 -1.015,-67.278 -31.253,-65.619c-23.409,1.288 -40.725,28.478 -34.131,50.432c8.094,26.937 48.984,43.212 65.272,15.378l0.112,-0.191Z" style="fill:#e26d90;fill-rule:nonzero;"/><path d="M260.048,252.672c2.212,-13.838 -1.15,-27.594 -9.697,-38.769c-10.31,-13.481 -24.519,-17.487 -40.747,-19.522c-3.981,-0.497 -3.944,5.756 0,6.25c13.359,1.675 25.459,4.719 34.497,15.4c8.169,9.653 11.915,22.503 9.922,34.978c-0.628,3.935 5.39,5.628 6.025,1.663Z" style="fill:#fff;fill-rule:nonzero;"/><path d="M259.96,252.228c9.397,-18.044 5.344,-43.512 -8.422,-58.406c-15.915,-17.222 -41.122,-11.66 -54.065,6.284c-13.997,19.4 -9.972,44.616 9.193,58.775c16.838,12.438 41.804,13.166 53.294,-6.653c1.516,-2.612 -2.531,-4.975 -4.047,-2.362c-10.762,18.556 -34.29,15.643 -48.722,3.493c-16.671,-14.037 -17.793,-37.815 -3.075,-54.022c32.872,-36.19 68.369,18.704 51.797,50.529c-1.393,2.671 2.653,5.043 4.047,2.362Z" style="fill:#4d2d54;fill-rule:nonzero;"/><path d="M219.441,233.637c7.379,-18.446 -3.075,-57.8 -22.54,-57.459c-15.066,0.259 -25.269,22.981 -20.222,42.063c6.197,23.422 33.184,38.865 42.7,15.556l0.062,-0.16Z" style="fill:#e26d90;fill-rule:nonzero;"/><path d="M218.388,238.306c5.347,-13.059 4.25,-27.831 -3.9,-39.612c-7.725,-11.166 -22.481,-14.553 -35.334,-14.182c-4.013,0.119 -4.028,6.369 0,6.25c11.722,-0.34 25,2.594 31.387,13.372c6.016,10.15 6.213,21.782 1.819,32.513c-1.522,3.719 4.522,5.337 6.028,1.659Z" style="fill:#fff;fill-rule:nonzero;"/><path d="M221.701,234.053c5.697,-16.112 1.872,-38.431 -8.91,-51.756c-10.365,-12.813 -26.143,-9.931 -34.206,3.856c-10.353,17.697 -5.769,42.091 10.163,54.9c11.953,9.613 26.89,8.016 32.953,-7c1.131,-2.797 -3.4,-4.012 -4.519,-1.247c-7.5,18.563 -26.656,6.756 -33.825,-5.05c-7.966,-13.122 -8.256,-34.328 3.994,-45.272c13.884,-12.403 25.259,5.291 29.04,17.057c3.397,10.556 4.538,22.665 0.791,33.265c-1.006,2.85 3.522,4.075 4.519,1.247Z" style="fill:#4d2d54;fill-rule:nonzero;"/><path d="M190.791,206.172c1.457,-17.763 -15.362,-52.066 -30.1,-49.091c-11.403,2.303 -14.046,24.335 -5.906,40.972c9.991,20.419 34.006,30.744 35.994,8.272l0.012,-0.153Z" style="fill:#e26d90;fill-rule:nonzero;"/><path d="M152.888,168.097c9.975,2.537 17.647,9.787 23.041,18.337c4.134,6.55 10.997,20.616 4.859,27.988c-2.556,3.069 1.844,7.515 4.419,4.419c7.113,-8.541 3.3,-21.7 -1.128,-30.635c-5.972,-12.04 -16.228,-22.753 -29.528,-26.137c-3.9,-0.991 -5.566,5.034 -1.663,6.028Z" style="fill:#fff;fill-rule:nonzero;"/><path d="M193.135,205.962c0.741,-15.878 -7.078,-35.5 -18.937,-46.193c-11.272,-10.163 -23.266,-3.666 -25.86,10.365c-3.259,17.616 5.413,38.285 20.963,47.525c11.662,6.928 22.656,2.129 23.834,-11.697c0.256,-3.003 -4.434,-2.987 -4.687,0c-1.463,17.157 -17.825,8.691 -24.944,0.725c-8.9,-9.959 -14.581,-26.853 -9.488,-39.868c6.688,-17.088 20.788,-0.825 25.772,8.006c5.244,9.284 9.163,20.356 8.66,31.137c-0.141,3.016 4.547,3.01 4.687,0Z" style="fill:#4d2d54;fill-rule:nonzero;"/><path d="M160.448,181.622c-0.166,-14.628 -17.394,-40.15 -29.844,-35.678c-9.634,3.459 -10.15,21.725 -1.809,34.106c10.234,15.194 31.74,20.231 31.653,1.7l0,-0.128Z" style="fill:#e26d90;fill-rule:nonzero;"/><path d="M124.129,153.903c21.041,1.888 27.453,18.15 25.881,37.359c-0.328,4.007 5.925,3.988 6.25,0c1.894,-23.14 -7.6,-41.409 -32.131,-43.609c-4.003,-0.359 -3.981,5.894 0,6.25Z" style="fill:#fff;fill-rule:nonzero;"/><path d="M162.791,181.416c-0.593,-13.085 -9.068,-28.41 -20.193,-35.5c-10.678,-6.804 -20.578,-0.2 -21.85,11.771c-1.56,14.741 7.422,30.269 21.05,36.135c10.656,4.587 21.093,0.075 20.993,-12.406c-0.025,-3.016 -4.712,-3.022 -4.687,0c0.103,12.678 -12.141,10.506 -19.538,5.209c-9.106,-6.519 -15.015,-18.763 -12.965,-30.003c2.403,-13.188 13.59,-8.872 20.103,-1.847c6.5,7.009 11.959,16.941 12.4,26.641c0.134,3.003 4.825,3.021 4.687,0Z" style="fill:#4d2d54;fill-rule:nonzero;"/><path d="M137.507,163.019c-2.769,-12.491 -20.619,-34.241 -29.384,-30.397c-6.785,2.975 -3.885,18.569 4.762,29.122c10.613,12.947 28.056,17.203 24.644,1.381l-0.022,-0.106Z" style="fill:#e26d90;fill-rule:nonzero;"/><path d="M110.323,141.772c10.2,6.953 19.028,16.815 17.872,29.909c-0.354,4.003 5.896,3.978 6.25,0c1.353,-15.328 -9.038,-27.175 -20.966,-35.306c-3.331,-2.269 -6.463,3.144 -3.156,5.397Z" style="fill:#fff;fill-rule:nonzero;"/><path d="M139.766,162.187c-2.831,-11.3 -11.531,-23.284 -21.287,-29.637c-8.794,-5.725 -17.091,-1.494 -16.378,9.366c0.875,13.271 10.822,26.971 23.115,32.006c9.622,3.94 16.844,-1.244 14.55,-11.735c-0.643,-2.943 -5.165,-1.7 -4.521,1.247c2.728,12.478 -11.194,5.391 -15.994,1.278c-6.572,-5.637 -14.047,-16.596 -12.435,-25.84c1.779,-10.197 12.616,0 16.082,3.719c5.412,5.812 10.397,13.053 12.347,20.843c0.734,2.922 5.256,1.685 4.521,-1.247Z" style="fill:#4d2d54;fill-rule:nonzero;"/><path d="M116.098,139.409c-4.425,-9.831 -23.097,-24.053 -29.832,-18.893c-5.212,3.996 -0.159,16.393 8.891,23.296c11.106,8.472 26.503,8.154 20.981,-4.318l-0.04,-0.085Z" style="fill:#e26d90;fill-rule:nonzero;"/><path d="M83.582,124.347c9.513,4.159 19.984,12.506 21.191,23.54c0.431,3.954 6.687,4 6.25,0c-1.457,-13.343 -12.46,-23.768 -24.288,-28.937c-3.647,-1.594 -6.834,3.788 -3.153,5.397Z" style="fill:#fff;fill-rule:nonzero;"/><path d="M118.123,138.019c-4.375,-8.919 -14.232,-17.55 -23.797,-20.416c-8.994,-2.691 -14.325,3.897 -11.694,12.559c3.263,10.735 13.9,19.854 25.009,21.363c9.119,1.238 14.322,-4.903 10.482,-13.506c-1.228,-2.75 -5.269,-0.369 -4.047,2.365c4.359,9.76 -9.235,6.153 -13.597,3.863c-6.178,-3.247 -13.916,-10.866 -13.959,-18.45c-0.047,-8.385 10.956,-1.953 14.346,0.359c5.288,3.61 10.36,8.422 13.21,14.228c1.328,2.71 5.372,0.335 4.047,-2.365Z" style="fill:#4d2d54;fill-rule:nonzero;"/><path d="M640.373,945.478c5.925,18.834 12.918,47.931 -0.888,65.072c-21.715,26.959 -53.306,-1.259 -69.05,-18.75c-21.994,-24.441 -47.247,-47.006 -74.903,-64.928c-30.553,-19.8 -80.781,-37.944 -94.044,-74.616c-9.006,-24.89 -1.484,-55.694 20.6,-71.297c8.597,-6.078 19.4,-8.253 29.928,-8.64c84.716,-3.135 153.472,89.972 183.363,159.562c1.637,3.806 3.375,8.453 4.994,13.597Z" style="fill:#fcf7fa;fill-rule:nonzero;"/><path d="M621.482,936.944c-5.478,2.997 -6.956,10.047 -7.856,16.222c0.54,-3.716 -10.416,-3.707 -12.156,-3.266c-4.191,1.069 -9.604,4.05 -12.013,7.778c-1.234,1.9 -3.791,11.569 0.397,12.313c-2.863,-0.51 -5.169,-2.791 -8.031,-3.291c-2.425,-0.422 -4.903,0.506 -6.985,1.822c-7.84,4.956 -7.734,13.706 -4.225,22.731l0.507,0.547c15.74,17.491 47.337,45.709 69.053,18.75c13.803,-17.141 6.812,-46.238 0.884,-65.072c-0.466,-1.481 -0.944,-2.909 -1.425,-4.303c-4.55,-5.497 -10.494,-8.419 -18.15,-4.231Z" style="fill:#e26d90;fill-rule:nonzero;"/><path d="M618.341,1021.69c-0.025,0 -0.046,0 -0.071,0l0.343,0c-0.09,0 -0.181,0 -0.272,0Z" style="fill:#728dc7;fill-rule:nonzero;"/><path d="M618.27,1021.69c-17.775,-0.047 -36.641,-17.613 -47.694,-29.894c-21.997,-24.441 -47.247,-47.006 -74.903,-64.928c-30.553,-19.8 -80.782,-37.944 -94.044,-74.616l17.387,-5.656c18.275,29.506 61.347,45.897 88.682,63.606c24.9,16.135 47.853,36.038 68.231,57.685c-0.372,0.196 -0.738,0.409 -1.091,0.631c-7.84,4.956 -7.734,13.706 -4.225,22.731l0.507,0.547c10.996,12.216 29.728,29.669 47.421,29.894c-0.09,0 -0.178,0 -0.271,0Z" style="fill:#ecd1e5;fill-rule:nonzero;"/><path d="M618.613,1021.69c-0.022,0 -0.047,0 -0.072,0c-17.693,-0.225 -36.425,-17.678 -47.421,-29.894l-0.507,-0.547c-3.509,-9.025 -3.615,-17.775 4.225,-22.731c0.353,-0.222 0.719,-0.435 1.091,-0.631c2.256,2.393 4.478,4.809 6.669,7.243c11.065,12.297 29.968,29.891 47.762,29.891c5.113,0 10.135,-1.453 14.853,-4.9c-1.262,3.778 -3.072,7.3 -5.587,10.425c-6.372,7.909 -13.591,11.069 -21.013,11.144Z" style="fill:#d55c84;fill-rule:nonzero;"/><path d="M215.191,313.941c-4.512,3.087 -10.196,4.259 -15.631,3.678c-5.24,-0.557 -9.947,-2.122 -15.247,-1.382c-5.09,0.713 -9.65,3.657 -13.515,6.894c-4.863,4.072 -9.194,8.903 -14.775,11.925c-5.113,2.775 -11.128,3.86 -16.888,3.047c-4.178,-0.584 -8.156,-2.125 -12.05,-3.744c-3.256,-1.353 -6.484,-2.771 -9.712,-4.187c13.334,-2.903 26.731,-7.906 36.312,-17.622c6.488,-6.578 11.05,-15.134 18.66,-20.372c7.809,-5.381 17.728,-6.503 27.206,-6.837c3.931,-0.141 7.865,-0.172 11.797,-0.097c4.084,0.081 8.647,0.493 11.331,3.568c6.003,6.875 -1.334,20.922 -7.488,25.129Z" style="fill:#fedc8e;fill-rule:nonzero;"/><path d="M214.01,311.919c-14.078,7.694 -28.412,-2.241 -42.35,7.656c-5.8,4.119 -10.39,10.287 -16.819,13.459c-12.634,6.232 -24.621,0.213 -36.284,-4.887c-0.187,1.428 -0.375,2.856 -0.559,4.284c17.703,-4.225 31.672,-11.122 43.375,-25.265c9.343,-11.291 18.265,-17.891 33.415,-19.232c4.253,-0.378 9.503,-1.293 13.613,-0.362c14.103,3.2 13.903,17.178 5.134,24.712c-2.294,1.969 1.038,5.272 3.316,3.316c6.156,-5.291 13.072,-15.919 9.74,-24.528c-3.706,-9.591 -15.778,-8.335 -24.09,-8.138c-12.738,0.297 -25.478,1.713 -35.388,10.457c-5.797,5.115 -9.593,12.1 -15.084,17.5c-9.709,9.556 -22.331,13.931 -35.278,17.021c-1.825,0.435 -2.444,3.46 -0.56,4.282c14.379,6.287 28.313,12.672 43.004,3.606c3.581,-2.209 6.475,-5.172 9.687,-7.856c9.306,-7.785 18.134,-7.403 30.053,-8.066c6.572,-0.362 11.381,-0.6 17.441,-3.912c2.647,-1.447 0.284,-5.497 -2.366,-4.047Z" style="fill:#4d2d54;fill-rule:nonzero;"/><path d="M214.079,299.303c-11.013,5.125 -20.428,-5.375 -31.641,-3.194c-4.497,0.875 -8.293,3.832 -11.615,6.985c-5.532,5.247 -10.263,11.275 -15.607,16.715c-5.34,5.441 -11.475,10.385 -18.728,12.741c-7.25,2.356 -15.8,1.744 -21.722,-3.056c6.475,-0.178 12.863,-2.672 17.747,-6.931c6.872,-5.991 10.385,-14.832 15.097,-22.635c3.66,-6.069 8.128,-11.606 12.794,-16.937c1.766,-2.019 3.569,-4.016 5.631,-5.732c2.403,-1.997 5.128,-3.581 7.953,-4.922c5.941,-2.809 12.382,-4.559 18.928,-5.137c9.8,-0.863 20.313,1.169 27.616,7.766c3.513,3.171 6.156,7.812 3.978,12.365c-2.412,5.05 -5.147,9.513 -10.431,11.972Z" style="fill:#c6a8d0;fill-rule:nonzero;"/><path d="M213.454,297.044c-14.872,4.556 -26.113,-8.888 -40.325,1.009c-16.994,11.828 -31.409,45.453 -57.178,29.416c-0.394,1.456 -0.791,2.912 -1.185,4.368c18.488,-2.143 24.935,-13.771 33.729,-28.743c7.259,-12.357 16.79,-25.185 30.659,-30.403c5.912,-2.225 12.369,-3.485 18.703,-3.329c6.288,-0.012 12.153,1.554 17.591,4.704c8.487,10.04 7.637,17.781 -2.553,23.212c-2.554,1.597 -0.204,5.653 2.365,4.05c26.275,-16.403 2.606,-37.312 -19.872,-36.562c-13.259,0.443 -26.125,5.412 -35.29,15.075c-14.525,15.325 -21.935,44.593 -45.332,47.309c-2.218,0.256 -3.3,3.05 -1.181,4.366c13.997,8.712 28.438,3.384 39.988,-6.86c12.397,-11 20.215,-28.584 40.278,-24.884c7.95,1.469 12.731,4.278 20.85,1.794c2.878,-0.885 1.65,-5.41 -1.247,-4.522Z" style="fill:#4d2d54;fill-rule:nonzero;"/><path d="M200.282,257.256c-5.641,-0.315 -11.419,0.619 -16.628,2.535c-16.15,5.946 -28.775,19.534 -37.438,34.021c-4.518,7.554 -7.825,15.85 -13.109,22.891c-5.281,7.041 -13.247,12.891 -22.044,12.594c5.435,3.19 12.532,3.337 18.097,0.375c3.744,-1.991 6.678,-5.191 9.456,-8.394c6.379,-7.362 12.21,-15.125 17.866,-23.05c5.444,-7.631 11.984,-15.45 20.678,-19.456c8.378,-3.863 20.116,-2.653 28.572,0.547c3.191,1.206 6.275,2.837 9.653,3.319c3.381,0.484 7.272,-0.494 9.035,-3.416c1.59,-2.638 1.25,-4.816 0.05,-7.653c-3.885,-9.153 -14.888,-13.797 -24.188,-14.313Z" style="fill:#838ec6;fill-rule:nonzero;"/><path d="M200.282,254.912c-17.194,0.279 -31.437,7.985 -43.109,20.4c-14.572,15.497 -22.16,49.754 -46.11,51.641c-2.753,0.216 -3.037,3.588 -0.622,4.603c17.313,7.269 27.216,-4.912 37.247,-17.634c6.525,-8.272 12.032,-17.719 19.572,-25.125c14.925,-14.66 27.638,-8.522 45.056,-4.594c7.204,1.625 15.541,-0.409 15.435,-9.356c-0.153,-13.05 -17.388,-18.756 -27.469,-19.935c-2.991,-0.35 -2.962,4.341 0,4.688c5.316,0.328 10.241,1.887 14.781,4.678c1.625,13.372 -1.275,17.628 -8.709,12.781c-3.322,-0.522 -6.534,-2.018 -9.925,-2.506c-8.678,-1.25 -17.119,-0.206 -24.625,4.497c-18.869,11.831 -33.706,59.078 -60.119,47.984c-0.206,1.538 -0.412,3.069 -0.622,4.607c15.491,-1.222 23.891,-12.104 30.897,-25.016c12.625,-23.256 29.035,-46.55 58.322,-47.025c3.016,-0.05 3.025,-4.738 0,-4.688Z" style="fill:#4d2d54;fill-rule:nonzero;"/><path d="M489.148,379.944c32.509,-32.828 81.968,-49.041 125.284,-62.022c21.616,-6.478 43.975,-12.188 66.319,-15.456c22.397,-3.279 89.078,-5.75 65.534,35.503c-11.912,20.878 -40.484,23.19 -60.812,31.528c-18.057,7.403 -34.797,17.506 -50.822,28.569c-34.244,23.646 -65.153,53.428 -102.185,72.709c-2.675,1.397 -0.306,5.444 2.366,4.05c47.278,-24.622 84.281,-65.209 131.15,-90.819c13.719,-7.497 27.988,-12.925 42.85,-17.634c9.759,-3.094 19.859,-6.156 28.403,-11.997c11.66,-7.975 21.81,-23.966 17.763,-38.597c-5.044,-18.225 -31.066,-19.756 -46.538,-20.041c-26.475,-0.484 -52.997,6.338 -78.415,12.95c-49.029,12.754 -107.719,31.094 -144.213,67.944c-2.125,2.144 1.188,5.46 3.316,3.313Z" style="fill:#4d2d54;fill-rule:nonzero;"/><path d="M239.976,555.309c27.665,-22.368 57.306,-41.828 83.353,-66.256c15.75,-14.769 50.859,-46.434 36.7,-71.644c-11.097,-19.756 -37.144,-14.243 -54.731,-8.65c-32.532,10.35 -61.797,29.413 -89.397,49.06c-20.247,14.412 -45.197,29.478 -55.344,53.325c-9.147,21.49 -6.056,45.184 12.719,59.847c30.14,23.54 71.556,10.45 105.662,4.443c2.966,-0.522 1.71,-5.037 -1.247,-4.518c-30.578,5.387 -66.146,16.884 -94.962,0.85c-19.656,-10.935 -26.038,-31.682 -19.922,-52.907c7.522,-26.106 34.653,-42.184 55.459,-56.993c23.194,-16.507 47.31,-32.291 73.725,-43.172c17.879,-7.363 62.625,-22.553 66.26,8.231c3.144,26.609 -32.91,54.584 -50.31,69.672c-22.796,19.772 -47.859,36.462 -71.278,55.394c-2.347,1.896 0.988,5.193 3.313,3.318Z" style="fill:#4d2d54;fill-rule:nonzero;"/><path d="M281.548,352.403c2.118,12.291 12.612,19.244 24.834,17.356c13.631,-2.1 23.447,-12.887 25.694,-26.222c0.497,-2.95 -4.019,-4.218 -4.522,-1.243c-1.675,9.934 -7.584,18.365 -17.391,21.728c-10.972,3.762 -22.015,-0.806 -24.093,-12.866c-0.513,-2.969 -5.032,-1.709 -4.522,1.247Z" style="fill:#4d2d54;fill-rule:nonzero;"/><path d="M292.576,365.447c-1.625,3.969 -3.25,7.934 -4.878,11.903c-1.144,2.791 3.39,4.003 4.518,1.247c1.629,-3.969 3.254,-7.938 4.882,-11.903c1.143,-2.791 -3.391,-4.003 -4.522,-1.247Z" style="fill:#4d2d54;fill-rule:nonzero;"/><path d="M306.104,368.4c0.444,3.103 0.887,6.206 1.331,9.309c0.181,1.263 1.769,1.928 2.881,1.638c1.354,-0.356 1.816,-1.638 1.638,-2.885c-0.444,-3.103 -0.888,-6.206 -1.328,-9.309c-0.185,-1.262 -1.772,-1.928 -2.885,-1.637c-1.35,0.356 -1.815,1.637 -1.637,2.884Z" style="fill:#4d2d54;fill-rule:nonzero;"/><path d="M318.973,361.394c1.834,3.334 3.668,6.665 5.503,10c1.453,2.643 5.503,0.284 4.047,-2.366c-1.835,-3.331 -3.669,-6.666 -5.503,-10c-1.454,-2.644 -5.504,-0.281 -4.047,2.366Z" style="fill:#4d2d54;fill-rule:nonzero;"/><path d="M208.145,369.797c1.737,10.09 10.44,15.784 20.446,14.219c11.047,-1.732 19.06,-10.482 20.885,-21.31c0.497,-2.95 -4.019,-4.219 -4.522,-1.247c-1.313,7.791 -5.891,14.407 -13.588,17.06c-8.556,2.947 -17.084,-0.572 -18.703,-9.966c-0.512,-2.969 -5.031,-1.709 -4.518,1.244Z" style="fill:#4d2d54;fill-rule:nonzero;"/><path d="M216.966,379.987c-1.3,3.175 -2.6,6.347 -3.903,9.525c-1.14,2.788 3.391,4.004 4.522,1.247c1.3,-3.178 2.603,-6.353 3.903,-9.525c1.144,-2.79 -3.39,-4.006 -4.522,-1.247Z" style="fill:#4d2d54;fill-rule:nonzero;"/><path d="M227.791,382.6c0.354,2.481 0.71,4.966 1.066,7.447c0.178,1.25 1.772,1.95 2.881,1.637c1.347,-0.378 1.819,-1.618 1.638,-2.881c-0.353,-2.484 -0.71,-4.969 -1.066,-7.45c-0.178,-1.253 -1.772,-1.947 -2.881,-1.637c-1.347,0.375 -1.819,1.618 -1.638,2.884Z" style="fill:#4d2d54;fill-rule:nonzero;"/><path d="M238.135,377.103c1.466,2.669 2.935,5.334 4.4,8.003c1.456,2.644 5.506,0.281 4.05,-2.365c-1.469,-2.666 -2.934,-5.335 -4.403,-8.004c-1.453,-2.643 -5.503,-0.281 -4.047,2.366Z" style="fill:#4d2d54;fill-rule:nonzero;"/><path d="M523.845,795.303c40.462,25.644 71.118,64.625 94.037,106.206c10.516,19.075 19.775,38.941 24.534,60.294c5.469,24.547 0.21,69.816 -36.975,54.534c-20.146,-8.275 -33.581,-27.218 -48.484,-42.181c-17.034,-17.103 -35.6,-32.822 -55.653,-46.281c-33.022,-22.156 -81.531,-36.328 -97.556,-76.241c-1.113,-2.765 -5.647,-1.559 -4.519,1.244c13.197,32.881 47.531,48.944 76.675,65.169c20.612,11.478 39.753,24.962 57.547,40.503c17.309,15.116 31.54,33.425 48.919,48.337c21.412,18.369 55.937,26.785 65.634,-8.468c9.378,-34.103 -12.066,-74.635 -28.334,-103.319c-23.079,-40.684 -53.632,-78.6 -93.46,-103.847c-2.556,-1.619 -4.909,2.434 -2.365,4.05Z" style="fill:#4d2d54;fill-rule:nonzero;"/><path d="M318.37,537.3c-0.225,0.887 -1.316,5.031 -2.838,4.975c-1.744,-0.066 -1.247,-4.491 -1.022,-5.553c0.266,-1.253 1.131,-4.594 2.619,-4.875c1.997,-0.381 1.447,4.297 1.241,5.453c-0.532,2.947 3.984,4.216 4.518,1.247c0.694,-3.866 0.641,-10.638 -4.468,-11.494c-4.666,-0.784 -7.588,4.628 -8.429,8.419c-0.837,3.775 -0.584,10.303 4.157,11.453c4.859,1.178 7.784,-4.606 8.74,-8.378c0.744,-2.925 -3.775,-4.172 -4.518,-1.247Z" style="fill:#4d2d54;fill-rule:nonzero;"/><path d="M261.707,555.472c2.403,2.956 7.122,6.531 11.009,3.972c4.263,-2.807 1.675,-9.172 -0.706,-12.269c-2.315,-3.022 -7.056,-6.722 -11.006,-4.331c-4.413,2.665 -1.956,8.968 0.337,12.15c1.747,2.425 5.816,0.087 4.047,-2.366c-0.54,-0.75 -3.328,-4.844 -1.981,-5.784c1.356,-0.947 4.306,2.397 4.919,3.203c0.562,0.74 3.034,4.515 1.803,5.512c-1.322,1.072 -4.519,-2.681 -5.106,-3.406c-1.903,-2.344 -5.2,0.991 -3.316,3.319Z" style="fill:#4d2d54;fill-rule:nonzero;"/><path d="M290.46,194.584c0.731,-10.981 1.488,-22.097 4.913,-32.553c3.425,-10.459 9.865,-20.359 19.503,-25.672c1.803,-0.993 3.8,-1.837 5.853,-1.675c1.709,0.138 3.287,0.96 4.722,1.9c6.722,4.425 11.131,11.613 14.372,18.978c4.397,9.988 7.062,20.944 6.075,31.81c-0.988,10.865 -5.925,21.622 -14.572,28.278" style="fill:#fcf7fa;fill-rule:nonzero;"/><path d="M292.804,194.584c0.987,-14.278 11.806,-77.746 37.612,-49.903c17.182,18.541 18.429,52.266 -0.746,69.313c-2.26,2.009 1.065,5.315 3.315,3.315c11.816,-10.506 16.788,-25.084 15.094,-40.793c-1.5,-13.932 -8.156,-34.204 -21.209,-41.772c-9.629,-5.581 -18.272,1.725 -24.479,9.237c-11.646,14.097 -13.068,33.138 -14.275,50.603c-0.206,3.013 4.482,2.997 4.688,0Z" style="fill:#4d2d54;fill-rule:nonzero;"/><path d="M304.857,194.069c-0.5,3.494 -0.406,7.04 -0.306,10.568c0.019,0.694 0.037,1.397 0.247,2.06c0.297,0.937 0.953,1.722 1.662,2.412c2.435,2.369 5.678,3.894 9.056,4.257c0.6,0.062 1.219,0.09 1.797,-0.079c0.738,-0.221 1.347,-0.746 1.885,-1.3c2.15,-2.212 3.547,-5.078 4.328,-8.062c0.784,-2.984 0.978,-6.094 0.962,-9.178c-0.025,-3.913 -0.403,-7.888 -1.881,-11.51c-1.359,-3.337 -4.753,-8.271 -8.778,-8.615c-2,-0.172 -2.728,2.537 -3.475,3.99c-1.172,2.285 -2.275,4.607 -3.2,7.004c-1.056,2.728 -1.881,5.553 -2.297,8.453Z" style="fill:#f598a5;fill-rule:nonzero;"/><path d="M321.085,212.806c6.028,-11.444 12.147,-35.89 -5.981,-40.194c-2.934,-0.693 -4.184,3.825 -1.247,4.522c7.609,1.807 9.456,11.844 8.678,18.472c-0.628,5.313 -3.031,10.15 -5.5,14.835c-1.403,2.665 2.641,5.037 4.05,2.365Z" style="fill:#4d2d54;fill-rule:nonzero;"/><path d="M306.554,204.578c-1.219,-17.753 7.312,-34.241 22.634,-43.344c2.594,-1.537 0.238,-5.593 -2.365,-4.047c-16.669,9.904 -26.288,28.016 -24.957,47.391c0.207,2.994 4.894,3.016 4.688,0Z" style="fill:#4d2d54;fill-rule:nonzero;"/><path d="M654.429,223.534c-15.528,-15.528 -28.234,-15.528 -43.759,0c15.525,-15.528 15.525,-28.231 0,-43.759c15.525,15.528 28.231,15.528 43.759,0c-15.528,15.528 -15.528,28.231 0,43.759Z" style="fill:#fff;fill-rule:nonzero;"/><path d="M833.623,616.734c-14.6,-14.603 -26.55,-14.603 -41.153,0c14.603,-14.603 14.603,-26.55 0,-41.153c14.603,14.603 26.553,14.603 41.153,0c-14.6,14.603 -14.6,26.55 0,41.153Z" style="fill:#fff;fill-rule:nonzero;"/><path d="M652.582,539.9c-14.731,-14.728 -26.784,-14.728 -41.512,0c14.728,-14.728 14.728,-26.781 0,-41.513c14.728,14.732 26.781,14.732 41.512,0c-14.731,14.732 -14.731,26.785 0,41.513Z" style="fill:#fff;fill-rule:nonzero;"/><path d="M76.11,753.552c-14.729,-14.728 -26.782,-14.728 -41.513,0c14.731,-14.728 14.731,-26.781 0,-41.513c14.731,14.732 26.784,14.732 41.513,0c-14.729,14.732 -14.729,26.785 0,41.513Z" style="fill:#fff;fill-rule:nonzero;"/><path d="M135.05,550.496c-14.731,-14.732 -26.781,-14.732 -41.512,0c14.731,-14.732 14.731,-26.782 0,-41.513c14.731,14.731 26.781,14.731 41.512,0c-14.731,14.731 -14.731,26.781 0,41.513Z" style="fill:#fff;fill-rule:nonzero;"/><path d="M242.573,41.512c-14.732,-14.731 -26.785,-14.731 -41.516,0c14.731,-14.731 14.731,-26.784 0,-41.512c14.731,14.728 26.784,14.728 41.516,0c-14.732,14.728 -14.732,26.781 0,41.512Z" style="fill:#fff;fill-rule:nonzero;"/><path d="M788.789,406.877c-14.731,-14.731 -26.781,-14.731 -41.513,0c14.732,-14.731 14.732,-26.781 0,-41.512c14.732,14.731 26.782,14.731 41.513,0c-14.731,14.731 -14.731,26.781 0,41.512Z" style="fill:#fff;fill-rule:nonzero;"/><path d="M847.079,907.15c-14.731,-14.731 -26.781,-14.731 -41.513,0c14.732,-14.731 14.732,-26.784 0,-41.516c14.732,14.732 26.782,14.732 41.513,0c-14.731,14.732 -14.731,26.785 0,41.516Z" style="fill:#fff;fill-rule:nonzero;"/><path d="M454.854,108.756c-9.134,-9.14 -16.616,-9.14 -25.753,0c9.137,-9.14 9.137,-16.619 0,-25.756c9.137,9.137 16.619,9.137 25.753,0c-9.134,9.137 -9.134,16.616 0,25.756Z" style="fill:#fff;fill-rule:nonzero;"/><path d="M188.254,682.781c-9.138,-9.14 -16.619,-9.14 -25.756,0c9.137,-9.14 9.137,-16.619 0,-25.756c9.137,9.137 16.618,9.137 25.756,0c-9.138,9.137 -9.138,16.616 0,25.756Z" style="fill:#fff;fill-rule:nonzero;"/><path d="M113.778,272.521c-9.137,-9.141 -16.615,-9.141 -25.753,0c9.138,-9.141 9.138,-16.619 0,-25.757c9.138,9.138 16.616,9.138 25.753,0c-9.137,9.138 -9.137,16.616 0,25.757Z" style="fill:#fff;fill-rule:nonzero;"/><path d="M59.772,441.346l-17.25,-2.891c-0.922,-0.153 -1.859,0.156 -2.509,0.825l-12.16,12.575c-1.634,1.687 -4.497,0.772 -4.843,-1.553l-2.582,-17.3c-0.137,-0.922 -0.722,-1.719 -1.559,-2.128l-15.719,-7.682c-2.109,-1.031 -2.122,-4.037 -0.019,-5.084l15.657,-7.803c0.834,-0.416 1.412,-1.219 1.543,-2.141l2.447,-17.322c0.332,-2.325 3.185,-3.265 4.832,-1.587l12.256,12.478c0.656,0.666 1.594,0.966 2.515,0.806l17.229,-3.025c2.315,-0.406 4.09,2.016 3.006,4.1l-8.081,15.516c-0.432,0.828 -0.429,1.816 0.009,2.637l8.2,15.454c1.103,2.075 -0.653,4.515 -2.972,4.125Z" style="fill:#fcdade;fill-rule:nonzero;"/><path d="M59.772,441.346l0.259,-1.541l-17.253,-2.891l-0.728,-0.059c-1.181,0 -2.325,0.475 -3.159,1.341l-12.163,12.571c-0.281,0.288 -0.572,0.388 -0.9,0.391c-0.297,0.003 -0.606,-0.106 -0.831,-0.294c-0.228,-0.19 -0.384,-0.428 -0.444,-0.793l-2.581,-17.3c-0.212,-1.432 -1.116,-2.666 -2.419,-3.304l-15.715,-7.678c-0.497,-0.25 -0.7,-0.659 -0.713,-1.143c0.013,-0.482 0.213,-0.888 0.703,-1.141l15.657,-7.8l0.003,-0.003c1.293,-0.647 2.187,-1.888 2.39,-3.319l2.447,-17.322c0.056,-0.365 0.213,-0.606 0.441,-0.797c0.228,-0.19 0.537,-0.3 0.837,-0.3c0.322,0.007 0.61,0.103 0.891,0.385l12.259,12.478l0,0.003c0.835,0.847 1.969,1.312 3.138,1.312l0.756,-0.065l0.016,-0.003l17.215,-3.022l0.241,-0.022c0.353,0.003 0.65,0.141 0.887,0.384c0.238,0.241 0.375,0.572 0.372,0.891l-0.15,0.591l-8.081,15.512c-0.331,0.638 -0.497,1.334 -0.497,2.031c0,0.71 0.172,1.419 0.516,2.063l8.2,15.453l0.153,0.597c0.003,0.319 -0.134,0.65 -0.372,0.89c-0.237,0.241 -0.531,0.382 -0.884,0.382l-0.235,-0.019l0.003,0l-0.259,1.541l-0.256,1.54l0.747,0.063c2.506,-0.019 4.378,-2.057 4.381,-4.397c0.003,-0.691 -0.169,-1.403 -0.519,-2.063l-8.2,-15.453l-0.15,-0.597l0.144,-0.587l8.081,-15.516c0.341,-0.65 0.506,-1.353 0.503,-2.031c-0.006,-2.347 -1.878,-4.378 -4.384,-4.4l-0.781,0.069l-17.228,3.025l0.003,0l-0.222,0.018c-0.341,0 -0.669,-0.134 -0.91,-0.381l-12.259,-12.478c-0.866,-0.887 -2.022,-1.325 -3.119,-1.319c-1.028,0.003 -2.022,0.353 -2.818,1.007c-0.8,0.65 -1.394,1.631 -1.554,2.778l-2.446,17.322c-0.06,0.412 -0.319,0.775 -0.694,0.962l0,-0.003l-15.656,7.803c-1.604,0.794 -2.45,2.4 -2.435,3.938c-0.015,1.546 0.844,3.165 2.466,3.95l15.715,7.681c0.379,0.184 0.641,0.54 0.7,0.953l2.582,17.303c0.168,1.141 0.765,2.113 1.562,2.756c0.797,0.647 1.785,0.994 2.803,0.994c1.11,0.006 2.278,-0.437 3.147,-1.341l12.185,-12.6l-0.022,0.025c0.24,-0.25 0.572,-0.387 0.912,-0.387l0.213,0.016l17.253,2.89l0.256,-1.54Z" style="fill:#fff;fill-rule:nonzero;"/><path d="M802.435,479.862l-11.409,-13.259c-0.61,-0.706 -1.528,-1.069 -2.456,-0.969l-17.391,1.885c-2.334,0.253 -3.947,-2.282 -2.728,-4.294l9.084,-14.947c0.485,-0.797 0.547,-1.784 0.163,-2.634l-7.166,-15.957c-0.962,-2.143 0.953,-4.462 3.238,-3.921l17.025,4.018c0.909,0.216 1.865,-0.031 2.556,-0.659l12.962,-11.744c1.741,-1.578 4.535,-0.475 4.732,1.866l1.437,17.434c0.075,0.931 0.606,1.763 1.416,2.228l15.175,8.697c2.04,1.169 1.853,4.169 -0.313,5.075l-16.137,6.756c-0.863,0.36 -1.491,1.119 -1.678,2.035l-3.585,17.122c-0.481,2.3 -3.39,3.05 -4.925,1.268Z" style="fill:#fcdade;fill-rule:nonzero;"/><path d="M802.435,479.862l1.185,-1.018l-11.41,-13.26c-0.84,-0.975 -2.059,-1.528 -3.334,-1.528l-0.478,0.025l-17.388,1.885l-0.153,0.009c-0.369,-0.003 -0.656,-0.144 -0.894,-0.384c-0.231,-0.241 -0.368,-0.579 -0.368,-0.897l0.19,-0.657l9.085,-14.95c0.425,-0.693 0.64,-1.487 0.64,-2.281c0,-0.612 -0.128,-1.228 -0.387,-1.806l-7.166,-15.953l-0.116,-0.528c-0.003,-0.322 0.135,-0.647 0.372,-0.891c0.241,-0.241 0.544,-0.378 0.885,-0.378l0.312,0.037l17.025,4.019c0.338,0.078 0.675,0.116 1.013,0.116c1.078,0 2.134,-0.397 2.953,-1.141l12.962,-11.744c0.275,-0.243 0.544,-0.328 0.838,-0.334c0.309,0 0.631,0.122 0.865,0.325c0.235,0.21 0.385,0.466 0.422,0.85l0.007,0.091l1.428,17.34c0.122,1.444 0.943,2.735 2.197,3.454l15.178,8.699c0.45,0.266 0.628,0.647 0.637,1.1c-0.012,0.51 -0.244,0.947 -0.778,1.179l-16.137,6.756c-1.335,0.556 -2.313,1.737 -2.607,3.159l0,-0.003l-3.581,17.122c-0.141,0.656 -0.669,0.997 -1.262,1.012c-0.357,-0.006 -0.666,-0.121 -0.95,-0.443l-1.185,1.018l-1.184,1.022c0.881,1.028 2.131,1.535 3.319,1.528c1.925,0.016 3.859,-1.303 4.318,-3.496l3.585,-17.125l0,-0.004c0.084,-0.406 0.365,-0.746 0.753,-0.909l16.137,-6.756c1.76,-0.731 2.713,-2.428 2.697,-4.06c0.013,-1.453 -0.744,-2.978 -2.209,-3.812l-15.178,-8.697c-0.363,-0.209 -0.6,-0.584 -0.635,-1l-1.437,-17.434c-0.097,-1.203 -0.675,-2.253 -1.485,-2.95c-0.809,-0.7 -1.84,-1.088 -2.915,-1.091c-1.019,-0.003 -2.091,0.372 -2.938,1.144l-12.962,11.747c-0.238,0.215 -0.541,0.328 -0.853,0.328l-0.294,-0.031l-17.025,-4.019c-0.344,-0.085 -0.691,-0.122 -1.031,-0.122c-2.472,0.019 -4.372,2.019 -4.382,4.394c-0.003,0.6 0.125,1.218 0.391,1.806l7.166,15.959l0,0.003l0.112,0.519l-0.184,0.66l-9.085,14.95c-0.437,0.715 -0.646,1.512 -0.646,2.278c0.003,1.165 0.465,2.25 1.24,3.059c0.769,0.81 1.894,1.347 3.147,1.347l0.488,-0.028l17.393,-1.885l0.138,-0.006c0.369,0 0.722,0.16 0.962,0.441l11.413,13.259l1.184,-1.019Z" style="fill:#fff;fill-rule:nonzero;"/><path d="M133.46,874.117l-17.35,2.225c-0.925,0.119 -1.735,0.688 -2.16,1.519l-8.003,15.553c-1.075,2.088 -4.081,2.041 -5.084,-0.084l-7.478,-15.816c-0.397,-0.843 -1.188,-1.437 -2.11,-1.584l-17.265,-2.806c-2.319,-0.378 -3.2,-3.25 -1.491,-4.863l12.728,-11.997c0.681,-0.643 1,-1.575 0.859,-2.497l-2.668,-17.287c-0.357,-2.325 2.103,-4.047 4.162,-2.919l15.347,8.397c0.819,0.447 1.806,0.466 2.638,0.044l15.618,-7.878c2.097,-1.06 4.497,0.747 4.063,3.056l-3.247,17.191c-0.172,0.915 0.116,1.859 0.775,2.521l12.319,12.419c1.656,1.669 0.678,4.51 -1.653,4.806Z" style="fill:#fcdade;fill-rule:nonzero;"/><path d="M133.46,874.117l-0.197,-1.55l-17.35,2.225c-1.438,0.188 -2.691,1.066 -3.353,2.357l-8.004,15.55c-0.256,0.484 -0.656,0.678 -1.131,0.69c-0.487,-0.012 -0.906,-0.222 -1.153,-0.728l-7.475,-15.812c-0.619,-1.313 -1.844,-2.232 -3.272,-2.463l-17.269,-2.803c-0.356,-0.062 -0.59,-0.222 -0.781,-0.447c-0.181,-0.225 -0.287,-0.531 -0.287,-0.828c0.006,-0.331 0.106,-0.625 0.403,-0.909l12.728,-12l0.003,0c0.888,-0.838 1.378,-2 1.378,-3.2l-0.05,-0.669l-2.665,-17.291l-0.019,-0.212c0.003,-0.36 0.14,-0.65 0.381,-0.888c0.241,-0.234 0.572,-0.372 0.894,-0.372l0.609,0.163l15.347,8.4l0.003,0c0.656,0.359 1.381,0.537 2.11,0.537c0.675,0 1.356,-0.156 1.981,-0.471l15.615,-7.879l0.575,-0.143c0.322,0 0.65,0.137 0.894,0.372c0.241,0.24 0.378,0.537 0.381,0.89l-0.025,0.256l-3.246,17.188l-0.079,0.816c0,1.146 0.454,2.265 1.279,3.096l12.318,12.419l0,0.003c0.272,0.278 0.369,0.563 0.372,0.878c0.003,0.3 -0.109,0.613 -0.303,0.841c-0.197,0.231 -0.437,0.384 -0.812,0.434l0.2,1.55l0.2,1.55c1.159,-0.143 2.156,-0.734 2.815,-1.534c0.666,-0.803 1.025,-1.803 1.025,-2.841c0.006,-1.081 -0.415,-2.218 -1.278,-3.081l-12.319,-12.419c-0.24,-0.24 -0.372,-0.565 -0.372,-0.896l0.022,-0.235l3.247,-17.19l0.081,-0.835c-0.021,-2.5 -2.046,-4.378 -4.4,-4.387c-0.659,0 -1.343,0.156 -1.984,0.478l-15.616,7.881l-0.571,0.134l-0.616,-0.156l0.003,0.003l-15.347,-8.4l0.003,0c-0.675,-0.368 -1.406,-0.547 -2.112,-0.547c-2.335,0.004 -4.381,1.869 -4.4,4.385l0.053,0.69l2.669,17.288l0.012,0.194c0,0.347 -0.14,0.684 -0.4,0.928l-12.728,12l0,-0.003c-0.934,0.875 -1.391,2.059 -1.384,3.184c0.003,1.009 0.343,1.991 0.975,2.784c0.634,0.794 1.593,1.394 2.718,1.575l17.269,2.804c0.416,0.068 0.769,0.331 0.947,0.709l7.478,15.819c0.775,1.65 2.41,2.528 3.975,2.515c1.519,0.013 3.106,-0.812 3.91,-2.384l8.006,-15.556c0.19,-0.372 0.553,-0.628 0.969,-0.682l17.35,-2.225l-0.2,-1.55Z" style="fill:#fff;fill-rule:nonzero;"/><path d="M775.923,148.794c0,6.137 0,12.272 0,18.406c0,4.022 6.25,4.028 6.25,0c0,-6.134 0,-12.269 0,-18.406c0,-4.022 -6.25,-4.028 -6.25,0Z" style="fill:#fff;fill-rule:nonzero;"/><path d="M745.67,169.591c5.312,3.065 10.625,6.131 15.937,9.2c3.491,2.015 6.641,-3.385 3.153,-5.397c-5.312,-3.066 -10.625,-6.135 -15.937,-9.2c-3.491,-2.016 -6.641,3.384 -3.153,5.397Z" style="fill:#fff;fill-rule:nonzero;"/><path d="M748.591,206.178c5.316,-3.065 10.629,-6.134 15.941,-9.203c3.481,-2.009 0.338,-7.413 -3.156,-5.397c-5.313,3.069 -10.625,6.138 -15.938,9.203c-3.484,2.013 -0.34,7.416 3.153,5.397Z" style="fill:#fff;fill-rule:nonzero;"/><path d="M781.713,221.975c0,-6.138 0,-12.272 0,-18.406c0,-4.022 -6.25,-4.028 -6.25,0c0,6.134 0,12.268 0,18.406c0,4.019 6.25,4.028 6.25,0Z" style="fill:#fff;fill-rule:nonzero;"/><path d="M811.97,201.178c-5.313,-3.066 -10.629,-6.134 -15.941,-9.2c-3.491,-2.016 -6.641,3.381 -3.156,5.394c5.315,3.069 10.628,6.137 15.94,9.206c3.488,2.013 6.641,-3.384 3.157,-5.4Z" style="fill:#fff;fill-rule:nonzero;"/><path d="M809.041,164.591c-5.312,3.065 -10.625,6.134 -15.937,9.203c-3.484,2.009 -0.341,7.412 3.153,5.393c5.316,-3.065 10.628,-6.134 15.941,-9.2c3.481,-2.012 0.337,-7.415 -3.157,-5.396Z" style="fill:#fff;fill-rule:nonzero;"/><path d="M763.72,861.434c5.925,1.59 11.853,3.178 17.778,4.765c3.888,1.044 5.55,-4.984 1.66,-6.025c-5.925,-1.59 -11.847,-3.175 -17.775,-4.762c-3.891,-1.044 -5.55,4.981 -1.663,6.022Z" style="fill:#fff;fill-rule:nonzero;"/><path d="M776.008,896.037c4.34,-4.341 8.678,-8.678 13.015,-13.016c2.85,-2.847 -1.568,-7.272 -4.418,-4.419c-4.338,4.335 -8.675,8.675 -13.016,13.016c-2.847,2.847 1.572,7.266 4.419,4.419Z" style="fill:#fff;fill-rule:nonzero;"/></svg>