<?xml version="1.0" encoding="UTF-8" standalone="no"?><!DOCTYPE svg PUBLIC "-//W3C//DTD SVG 1.1//EN" "http://www.w3.org/Graphics/SVG/1.1/DTD/svg11.dtd"><svg width="100%" height="100%" viewBox="0 0 128 31" version="1.1" xmlns="http://www.w3.org/2000/svg" xmlns:xlink="http://www.w3.org/1999/xlink" xml:space="preserve" xmlns:serif="http://www.serif.com/" style="fill-rule:evenodd;clip-rule:evenodd;stroke-linejoin:round;stroke-miterlimit:1.41421;"><path d="M48.637,6.752c-0.048,0.867 -0.797,1.542 -1.665,1.5l-37.102,-1.778c-0.867,-0.048 -1.542,-0.797 -1.5,-1.665l0.143,-3.307c0.048,-0.867 0.797,-1.542 1.665,-1.5l37.072,1.762c0.867,0.048 1.542,0.798 1.5,1.665l-0.113,3.323Z" style="fill:#78b042;fill-rule:nonzero;"/><path d="M36.443,14.057c0,-0.526 -0.427,-0.953 -0.953,-0.953l-30.18,0c-0.526,0 -0.952,0.427 -0.952,0.953l0,4.717c0,0.526 0.426,0.953 0.952,0.953l30.18,0c0.526,0 0.953,-0.427 0.953,-0.953l0,-4.717Z" style="fill:#5f6062;"/><path d="M45.75,23.874c0.001,0.016 0.001,0.031 0.001,0.046c0,0.498 -0.396,0.914 -0.893,0.937l-34.05,1.065c-0.006,0 -0.011,0 -0.016,0c-0.508,0 -0.929,-0.414 -0.937,-0.923l-0.105,-2.805c-0.001,-0.015 -0.001,-0.03 -0.001,-0.046c0,-0.497 0.396,-0.913 0.893,-0.936l34.05,-1.065c0.006,0 0.011,0 0.016,0c0.508,0 0.929,0.414 0.937,0.922l0.105,2.805Z" style="fill:#f4cf1c;fill-rule:nonzero;"/><path d="M41.152,29.574c0.001,0.01 0.001,0.021 0.001,0.031c0,0.497 -0.403,0.91 -0.901,0.922l-32.497,0c-0.498,-0.012 -0.9,-0.425 -0.9,-0.922c0,-0.01 0,-0.021 0,-0.031l0,-1.875c-0.013,-0.507 0.393,-0.936 0.9,-0.952l32.498,0c0.507,0.016 0.912,0.445 0.9,0.952l0,1.875Z" style="fill:#242f66;fill-rule:nonzero;"/><path d="M42,10.839c0,0.39 -0.578,0.705 -1.282,0.705l-39.436,0c-0.705,-0.007 -1.282,-0.292 -1.282,-0.705l0,-1.5c0,-0.39 0.577,-0.705 1.282,-0.705l39.42,0c0.713,0 1.283,0.315 1.283,0.705l0.015,1.5Z" style="fill:#f47641;fill-rule:nonzero;"/><path d="M60.307,12.272c0.061,-0.003 0.122,-0.004 0.183,-0.004c2.202,0 4.013,1.811 4.013,4.012c0,0.052 -0.001,0.103 -0.003,0.154c0.002,0.059 0.004,0.118 0.004,0.177c0,2.284 -1.879,4.163 -4.163,4.163c-2.283,0 -4.162,-1.879 -4.162,-4.163c0,-0.059 0.001,-0.118 0.003,-0.177c-0.001,-0.05 -0.002,-0.101 -0.002,-0.151c0,-2.201 1.811,-4.013 4.012,-4.013c0.039,0 0.077,0.001 0.115,0.002Zm0,7.395c0.024,0 0.048,0.001 0.072,0.001c1.683,0 3.068,-1.385 3.068,-3.068c0,-0.055 -0.002,-0.11 -0.005,-0.166c0.003,-0.051 0.004,-0.102 0.004,-0.153c0,-1.72 -1.415,-3.135 -3.135,-3.135c-1.72,0 -3.135,1.415 -3.135,3.135c0,0.051 0.002,0.102 0.004,0.153c-0.003,0.056 -0.004,0.111 -0.004,0.166c0,1.683 1.384,3.068 3.067,3.068c0.022,0 0.043,-0.001 0.064,-0.001Z" style="fill:#5f6062;fill-rule:nonzero;"/><path d="M66.54,12.482l1.027,0l0,1.387c0.709,-1.04 1.908,-1.642 3.165,-1.59c0.051,-0.002 0.102,-0.003 0.153,-0.003c2.201,0 4.013,1.812 4.013,4.013c0,0.048 -0.001,0.097 -0.003,0.145c0.002,0.051 0.003,0.102 0.003,0.153c0,2.201 -1.811,4.013 -4.013,4.013c-0.051,0 -0.102,-0.001 -0.153,-0.003c-1.257,0.052 -2.456,-0.55 -3.165,-1.59l0,5.287l-1.027,0l0,-11.812Zm4.23,7.185c0.024,0 0.048,0.001 0.072,0.001c1.683,0 3.067,-1.385 3.067,-3.068c0,-0.055 -0.001,-0.11 -0.004,-0.166c0.003,-0.055 0.004,-0.11 0.004,-0.165c0,-1.683 -1.384,-3.068 -3.067,-3.068c-0.024,0 -0.048,0 -0.072,0.001c-1.775,0 -3.236,1.461 -3.236,3.236c0,1.775 1.461,3.236 3.236,3.236c0,0 0,-0.007 0,-0.007Z" style="fill:#5f6062;fill-rule:nonzero;"/><path d="M84.203,18.902c-0.764,1.123 -2.064,1.767 -3.421,1.695c-2.415,0 -4.005,-1.725 -4.005,-4.178c-0.003,-0.07 -0.005,-0.14 -0.005,-0.21c0,-2.156 1.774,-3.93 3.93,-3.93c0.009,0 0.019,0 0.028,0c0.053,-0.002 0.106,-0.003 0.159,-0.003c1.971,0 3.593,1.622 3.593,3.592c0,0.037 -0.001,0.073 -0.002,0.109l0,0.75l-6.645,0c0,0.018 0,0.035 0,0.053c0,1.617 1.33,2.947 2.947,2.947c0.018,0 0.035,0 0.053,0c1.063,0.006 2.061,-0.521 2.655,-1.403l0.712,0.578Zm-0.75,-3.135c-0.052,-1.452 -1.284,-2.607 -2.737,-2.565c-1.466,-0.001 -2.719,1.097 -2.91,2.55l5.647,0.015Z" style="fill:#5f6062;fill-rule:nonzero;"/><path d="M86.738,14.702c0,-0.585 -0.09,-1.815 -0.09,-2.25l1.027,0c0,0.577 0,1.23 0.068,1.387l0.052,0c0.522,-1.003 1.577,-1.623 2.707,-1.59c2.468,0 3.001,1.68 3.001,3.405l-0.001,4.71l-1.027,0l0,-4.612c0,-1.283 -0.36,-2.535 -1.987,-2.535c-1.628,0 -2.738,1.035 -2.738,3.217l0,3.953l-1.028,0l0.016,-5.685Z" style="fill:#5f6062;fill-rule:nonzero;"/><path d="M100.433,14.447c-0.356,-0.54 -0.967,-0.858 -1.613,-0.84c-0.547,0 -1.2,0.255 -1.2,0.87c0,1.5 4.432,0.277 4.432,3.472c0,1.95 -1.867,2.633 -3.54,2.633c-1.202,0.079 -2.379,-0.387 -3.202,-1.268l1.373,-1.282c0.46,0.617 1.179,0.991 1.949,1.012c0.6,0 1.373,-0.292 1.373,-0.945c0,-1.695 -4.433,-0.36 -4.433,-3.495c0.001,-1.83 1.643,-2.655 3.3,-2.655c1.118,-0.066 2.203,0.399 2.926,1.253l-1.365,1.245Z" style="fill:#5f6062;fill-rule:nonzero;"/><path d="M102.69,13.914l0,-1.74l1.695,0l0,-2.385l2.055,0l0,2.378l2.25,0l0,1.747l-2.25,0l0,3.593c0,0.825 0.24,1.335 1.147,1.335c0.387,0.017 0.771,-0.071 1.11,-0.255l0,1.732c-0.519,0.196 -1.072,0.29 -1.627,0.278c-2.175,0 -2.685,-0.975 -2.685,-2.91l0,-3.75l-1.695,-0.023Z" style="fill:#5f6062;fill-rule:nonzero;"/><path d="M115.448,19.262l-0.053,0c-0.576,0.882 -1.581,1.391 -2.632,1.335c-1.5,0 -3,-0.84 -3,-2.468c0,-2.67 3.112,-2.857 5.167,-2.857l0.517,0l0.001,-0.225c-0.001,-1.013 -0.788,-1.538 -1.883,-1.538c-0.811,0 -1.593,0.306 -2.19,0.855l-1.08,-1.08c0.944,-0.876 2.201,-1.338 3.487,-1.282c3.511,0 3.511,2.535 3.511,3.697l0,4.725l-1.846,0l0.001,-1.162Zm-0.12,-2.55l-0.428,0c-1.132,0 -3.083,0.082 -3.083,1.267c0,0.75 0.75,1.08 1.44,1.08c1.403,0 2.07,-0.75 2.07,-1.882l0.001,-0.465Z" style="fill:#5f6062;fill-rule:nonzero;"/><path d="M121.628,15.969l-2.843,-3.802l2.498,0l1.642,2.467l1.778,-2.467l2.347,0l-2.805,3.802l3.3,4.418l-2.498,0l-2.137,-2.948l-2.16,2.948l-2.43,0l3.308,-4.418Z" style="fill:#5f6062;fill-rule:nonzero;"/></svg>